<svg width="250" height="250" viewBox="0 0 250 250" fill="none" xmlns="http://www.w3.org/2000/svg">
<path d="M6.55482 53.0665C6.55482 53.0665 8.90962 48.7223 12.6448 42.7236C12.6448 42.7236 24.6421 51.6861 24.5508 51.1887C24.4594 50.6914 6.55482 53.0665 6.55482 53.0665Z" fill="black"/>
<path d="M6.55472 53.5741H6.62575C12.939 52.7316 23.2413 51.4832 24.368 51.6354C24.6623 51.7572 24.7537 51.6963 24.8552 51.6354C24.9428 51.5763 25.0114 51.4931 25.0529 51.3958C25.0943 51.2986 25.1067 51.1915 25.0886 51.0873C25.0886 50.9452 25.0277 50.8031 24.6928 50.7219C24.0026 50.4479 17.1412 45.4236 12.9898 42.3177C12.934 42.2755 12.8699 42.2455 12.8016 42.2298C12.7334 42.214 12.6626 42.2129 12.594 42.2264C12.5254 42.2376 12.4601 42.2633 12.4023 42.3018C12.3446 42.3403 12.2957 42.3907 12.259 42.4497C8.51367 48.3976 6.16902 52.7824 6.10812 52.823C6.06577 52.9003 6.04431 52.9874 6.04589 53.0756C6.04747 53.1638 6.07202 53.2501 6.1171 53.3259C6.16219 53.4018 6.22628 53.4645 6.30301 53.508C6.37975 53.5515 6.46651 53.5743 6.55472 53.5741V53.5741ZM22.7947 50.6915C20.582 50.8133 16.2074 51.2903 7.51895 52.4373C8.3614 50.9249 10.2595 47.6059 12.8579 43.4647C18.278 47.5247 21.1707 49.6257 22.7643 50.6915H22.7947Z" fill="black"/>
<path d="M165.524 234.092L171.513 224.104L163.22 216.613L165.524 234.092Z" fill="black"/>
<path d="M165.524 234.599C165.611 234.598 165.697 234.575 165.773 234.532C165.849 234.49 165.913 234.429 165.96 234.356L171.949 224.368C172.009 224.266 172.032 224.147 172.013 224.03C171.995 223.913 171.936 223.807 171.847 223.729L163.565 216.238C163.487 216.168 163.39 216.124 163.287 216.111C163.183 216.098 163.078 216.118 162.986 216.167C162.896 216.217 162.822 216.293 162.775 216.385C162.728 216.477 162.71 216.582 162.722 216.684L165.016 234.132C165.029 234.239 165.076 234.338 165.149 234.416C165.221 234.495 165.317 234.548 165.422 234.569L165.524 234.599ZM170.863 224.206L165.788 232.579L163.859 217.913L170.863 224.206Z" fill="black"/>
<path d="M131.734 195.926L53.8596 206.942C52.2624 207.152 50.6421 206.789 49.2899 205.919C47.9377 205.049 46.9421 203.729 46.482 202.195L6.18418 52.4655C5.36445 49.3634 7.35641 46.6359 10.6599 46.3672L90.067 40.0084C91.6367 39.9318 93.1868 40.3814 94.4683 41.2851C95.7498 42.1888 96.6883 43.4941 97.1331 44.9912L135.8 189.771C136 190.442 136.051 191.15 135.948 191.843C135.846 192.536 135.592 193.199 135.205 193.785C134.818 194.371 134.307 194.866 133.707 195.236C133.108 195.606 132.434 195.841 131.734 195.926V195.926Z" fill="black"/>
<path d="M52.4366 208C52.7524 207.998 53.0677 207.976 53.3807 207.934L131.376 196.834C132.13 196.742 132.855 196.488 133.503 196.091C134.15 195.693 134.704 195.161 135.128 194.531C135.548 193.883 135.825 193.153 135.94 192.389C136.055 191.626 136.004 190.846 135.793 190.104L97.0661 44.3527C96.5924 42.7516 95.5951 41.355 94.2334 40.3862C92.8718 39.4173 91.2242 38.932 89.5539 39.0077L10.0238 45.4103C9.21757 45.4582 8.43183 45.6829 7.72237 46.0683C7.0129 46.4537 6.39713 46.9903 5.91879 47.6401C5.47881 48.2791 5.18714 49.0081 5.06499 49.7739C4.94285 50.5397 4.99333 51.3231 5.21274 52.067L45.573 202.827C46.0122 204.309 46.9159 205.611 48.1513 206.543C49.3868 207.474 50.8888 207.985 52.4366 208V208ZM131.252 196.023L53.2576 207.123C51.7538 207.323 50.2277 206.982 48.9533 206.16C47.6788 205.338 46.7395 204.09 46.3037 202.639L5.97627 51.8866C5.78598 51.2585 5.73957 50.5956 5.84047 49.9471C5.94137 49.2986 6.18699 48.6811 6.55917 48.1402C6.97007 47.5835 7.50021 47.1253 8.11094 46.7991C8.72167 46.4729 9.39762 46.2869 10.0895 46.2547L89.6196 39.8275C91.0979 39.7499 92.559 40.1733 93.7661 41.0289C94.9732 41.8845 95.8554 43.1222 96.2697 44.5413L134.972 190.317C135.155 190.947 135.201 191.609 135.106 192.258C135.011 192.907 134.778 193.529 134.422 194.08C134.06 194.612 133.589 195.06 133.039 195.395C132.49 195.731 131.875 195.944 131.236 196.023H131.252Z" fill="black"/>
<path d="M136.719 187.861L58.8489 198.943C57.2522 199.151 55.6336 198.785 54.2822 197.91C52.9308 197.035 51.9347 195.709 51.4717 194.168L11.1842 43.5401C10.3645 40.4194 12.3563 37.6755 15.6597 37.4052L95.079 31.0082C96.6494 30.9322 98.1999 31.3848 99.4824 32.2936C100.765 33.2024 101.705 34.5149 102.153 36.021L140.793 181.644C140.998 182.322 141.051 183.037 140.95 183.738C140.849 184.439 140.595 185.11 140.207 185.702C139.819 186.295 139.305 186.795 138.703 187.168C138.1 187.541 137.423 187.778 136.719 187.861V187.861Z" fill="white"/>
<path d="M58.093 200C58.4064 199.999 58.7193 199.977 59.0298 199.934L136.411 188.833C137.16 188.741 137.879 188.487 138.522 188.089C139.164 187.692 139.714 187.16 140.134 186.53C140.552 185.882 140.827 185.152 140.941 184.388C141.054 183.624 141.004 182.845 140.793 182.102L102.363 36.3376C101.893 34.7378 100.903 33.3432 99.5516 32.377C98.2003 31.4108 96.566 30.9289 94.9104 31.0085L16.022 37.4117C15.2152 37.4543 14.4278 37.6764 13.7166 38.062C13.0053 38.4476 12.3878 38.9871 11.9085 39.6417C11.4741 40.2818 11.186 41.0108 11.0649 41.7763C10.9438 42.5418 10.9926 43.3248 11.208 44.069L51.2509 194.843C51.6911 196.328 52.5939 197.63 53.8259 198.559C55.0579 199.487 56.5539 199.993 58.093 200ZM95.4235 31.812C96.8094 31.8506 98.1478 32.3288 99.2478 33.1783C100.348 34.0278 101.153 35.2052 101.549 36.5426L139.979 182.307C140.161 182.937 140.206 183.599 140.112 184.248C140.018 184.898 139.786 185.519 139.433 186.07C139.074 186.602 138.607 187.051 138.062 187.386C137.517 187.721 136.907 187.935 136.273 188.014V188.014L58.8913 199.115C57.4032 199.309 55.895 198.964 54.6358 198.143C53.3766 197.321 52.4483 196.076 52.0166 194.63L11.9981 43.864C11.8111 43.2356 11.766 42.573 11.866 41.9248C11.9661 41.2765 12.2088 40.659 12.5764 40.1172C12.985 39.5594 13.5122 39.1006 14.1197 38.7743C14.7271 38.448 15.3993 38.2626 16.0871 38.2315L94.9837 31.8284L95.4235 31.812Z" fill="black"/>
<path d="M19 54.0279L99.9433 47L131 164.372L51.2402 175L19 54.0279Z" fill="#005CFF"/>
<path d="M66.1658 189.34C66.2623 189.341 66.3569 189.313 66.438 189.261C66.5191 189.209 66.5832 189.134 66.6226 189.046L86.9226 146.122C86.9517 146.061 86.9685 145.995 86.972 145.928C86.9755 145.861 86.9656 145.794 86.9429 145.731C86.9203 145.668 86.8853 145.609 86.84 145.56C86.7946 145.51 86.7399 145.47 86.679 145.442C86.5577 145.386 86.4194 145.38 86.2941 145.426C86.1687 145.472 86.0663 145.565 86.0091 145.685L65.7091 188.62C65.6802 188.68 65.6636 188.745 65.6602 188.811C65.6568 188.877 65.6668 188.944 65.6895 189.006C65.7122 189.069 65.7472 189.126 65.7924 189.175C65.8376 189.223 65.8921 189.262 65.9527 189.29C66.0196 189.321 66.0921 189.338 66.1658 189.34V189.34Z" fill="white"/>
<path d="M128.071 224.804L109.253 227.454C108.057 227.601 106.849 227.318 105.843 226.656C104.837 225.994 104.099 224.996 103.761 223.84L101.894 216.827C101.737 216.294 101.7 215.733 101.785 215.185C101.87 214.636 102.075 214.113 102.385 213.653C102.695 213.192 103.103 212.806 103.58 212.521C104.056 212.237 104.59 212.06 105.142 212.005L123.98 209.448C125.164 209.318 126.356 209.609 127.347 210.27C128.337 210.93 129.064 211.918 129.4 213.061L131.258 220.014C131.414 220.54 131.453 221.094 131.372 221.637C131.29 222.18 131.09 222.698 130.786 223.155C130.482 223.612 130.081 223.997 129.612 224.282C129.143 224.567 128.617 224.745 128.071 224.804Z" fill="white"/>
<path d="M108.623 228.042C108.858 228.046 109.092 228.029 109.324 227.992L128.142 225.353C128.758 225.281 129.352 225.077 129.881 224.752C130.41 224.428 130.862 223.992 131.205 223.475C131.548 222.958 131.774 222.372 131.868 221.758C131.961 221.145 131.919 220.518 131.745 219.922L129.898 212.97C129.528 211.707 128.725 210.616 127.629 209.888C126.534 209.16 125.216 208.842 123.909 208.991L105.071 211.538C104.444 211.613 103.841 211.82 103.301 212.148C102.762 212.475 102.299 212.915 101.945 213.437C101.606 213.958 101.383 214.545 101.29 215.16C101.197 215.774 101.237 216.401 101.407 216.999L103.254 223.982C103.591 225.148 104.296 226.173 105.264 226.905C106.232 227.636 107.41 228.035 108.623 228.042V228.042ZM128 224.348L109.182 226.987C108.111 227.117 107.028 226.863 106.127 226.27C105.225 225.677 104.563 224.784 104.259 223.749L102.381 216.735C102.251 216.276 102.22 215.794 102.29 215.322C102.36 214.849 102.53 214.397 102.787 213.995C103.064 213.596 103.423 213.26 103.839 213.01C104.255 212.759 104.72 212.6 105.203 212.543L124.051 209.996C125.112 209.874 126.182 210.131 127.072 210.722C127.961 211.312 128.614 212.198 128.913 213.223L130.76 220.186C130.899 220.643 130.935 221.124 130.866 221.597C130.797 222.069 130.624 222.52 130.361 222.918C130.097 223.315 129.748 223.65 129.34 223.897C128.932 224.144 128.474 224.298 128 224.348V224.348Z" fill="white"/>
<path d="M42.474 44L65.6265 41.8915C65.6802 41.8862 65.7323 41.8695 65.7801 41.8423C65.8278 41.8151 65.8701 41.7779 65.9047 41.7329C65.9392 41.6878 65.9652 41.6359 65.9813 41.5799C65.9974 41.5239 66.0032 41.465 65.9983 41.4066C65.9935 41.3482 65.9782 41.2914 65.9532 41.2394C65.9282 41.1875 65.894 41.1414 65.8527 41.1038C65.8113 41.0662 65.7635 41.0378 65.7121 41.0203C65.6607 41.0028 65.6066 40.9965 65.5529 41.0018L42.4086 43.1014C42.3002 43.1014 42.1963 43.1483 42.1197 43.2317C42.0431 43.3151 42 43.4283 42 43.5463C42 43.6642 42.0431 43.7774 42.1197 43.8608C42.1963 43.9442 42.3002 43.9911 42.4086 43.9911L42.474 44Z" fill="#B5B5B5"/>
<path d="M69.4841 41.9849L72.6222 41.5155C72.6767 41.508 72.7299 41.4807 72.7785 41.4352C72.8271 41.3897 72.8702 41.327 72.9052 41.2508C72.9402 41.1745 72.9665 41.0863 72.9824 40.9914C72.9983 40.8964 73.0035 40.7967 72.9977 40.698C72.9871 40.4985 72.9342 40.3143 72.8501 40.1844C72.766 40.0544 72.6573 39.9888 72.5471 40.0016L69.4173 40.486C69.3066 40.486 69.2005 40.5658 69.1222 40.7077C69.044 40.8497 69 41.0422 69 41.243C69 41.4438 69.044 41.6363 69.1222 41.7783C69.2005 41.9202 69.3066 42 69.4173 42L69.4841 41.9849Z" fill="#B5B5B5"/>
<path d="M58.9284 175C58.9284 175 40.5812 114.702 56.4882 101.339L134.336 92C134.336 92 147.682 105.858 149.61 116.504C151.538 127.149 167.686 149.821 161.661 163.349L58.9284 175Z" fill="black"/>
<path d="M59.6036 176H59.6786L162.017 164.266C162.146 164.25 162.268 164.201 162.373 164.125C162.478 164.048 162.562 163.946 162.617 163.828C166.773 154.374 160.697 140.737 155.806 129.772C153.39 124.366 151.305 119.684 150.704 116.271C148.769 105.458 135.851 91.8058 135.296 91.2319C135.215 91.1476 135.117 91.0833 135.007 91.044C134.898 91.0047 134.781 90.9915 134.666 91.0054L57.128 100.414C56.9857 100.434 56.851 100.491 56.7379 100.58C40.6993 114.172 58.2383 172.98 58.9285 175.471C58.9741 175.618 59.0632 175.748 59.1839 175.842C59.3045 175.937 59.451 175.992 59.6036 176ZM161.357 162.816L60.1437 174.429C58.3133 168.117 43.3249 114.414 57.4881 101.939L134.426 92.6062C136.256 94.5997 147.479 107.044 149.189 116.603C149.834 120.198 151.95 124.955 154.395 130.452C159.016 140.918 164.913 153.981 161.357 162.816Z" fill="black"/>
<path d="M51.3468 140.874H51.4179L139.083 128.572C139.215 128.552 139.333 128.481 139.413 128.375C139.492 128.269 139.527 128.136 139.51 128.004C139.492 127.871 139.422 127.75 139.316 127.668C139.209 127.586 139.075 127.55 138.941 127.567L51.2758 139.869C51.1418 139.889 51.0211 139.961 50.9395 140.069C50.8578 140.178 50.8219 140.313 50.8393 140.448C50.8607 140.567 50.9232 140.675 51.0159 140.753C51.1087 140.831 51.2257 140.874 51.3468 140.874V140.874Z" fill="black"/>
<path d="M57 101.262C57 101.262 64.8898 102.339 69.723 118.648C77.1159 143.605 86.8576 196.273 93.0158 216.083C102.05 244.9 126.141 249 126.141 249L228 234.322C228 234.322 186.549 220.048 179.547 195.779C172.184 170.208 161.991 121.895 159.236 111.107C154.372 92 134.768 92 134.768 92L57 101.262Z" fill="white"/>
<path d="M126.119 250H126.225L228.347 235.275C228.515 235.25 228.67 235.17 228.787 235.047C228.905 234.925 228.978 234.768 228.996 234.6C229.013 234.433 228.973 234.266 228.882 234.124C228.792 233.983 228.657 233.875 228.498 233.819C228.076 233.684 187.212 219.335 180.388 195.649C175.271 177.862 168.704 148.773 164.372 129.515C162.424 120.885 160.885 114.055 160.039 110.738C155.073 91.2251 134.965 91 134.769 91L56.6642 100.351C56.4827 100.373 56.3153 100.46 56.1931 100.595C56.071 100.73 56.0023 100.905 56 101.087C56.0013 101.268 56.0673 101.443 56.1862 101.58C56.305 101.718 56.4691 101.809 56.6491 101.837C56.7699 101.837 64.1969 103.203 68.7256 118.738C72.4845 131.407 76.8169 151.16 81.0286 170.267C85.1347 188.985 89.0293 206.666 92.0787 216.498C96.7885 231.643 105.665 239.943 112.397 244.236C116.524 246.985 121.132 248.94 125.984 250H126.119ZM225.253 234.21L126.134 248.499C124.368 248.139 101.981 243.17 93.5882 216.048C90.5691 206.276 86.6593 188.624 82.5533 169.952C78.3567 150.814 73.994 131.031 70.2352 118.318C67.05 107.586 62.5515 103.308 59.6682 101.492L134.86 92.486C135.554 92.486 153.895 92.7411 158.575 111.113C159.405 114.4 160.945 121.215 162.892 129.846C167.24 149.118 173.807 178.238 178.939 196.069C182.638 208.873 195.801 218.854 206.202 224.963C212.31 228.516 218.678 231.607 225.253 234.21V234.21Z" fill="black"/>
<path d="M108.292 216H108.387L122.802 214.495C123.009 214.473 123.198 214.373 123.327 214.218C123.457 214.063 123.518 213.865 123.496 213.668C123.486 213.57 123.455 213.474 123.406 213.387C123.357 213.3 123.29 213.223 123.209 213.162C123.128 213.1 123.035 213.054 122.936 213.027C122.836 213.001 122.732 212.993 122.629 213.006L108.198 214.511C107.991 214.533 107.802 214.633 107.673 214.788C107.543 214.943 107.482 215.141 107.504 215.338C107.531 215.52 107.625 215.687 107.77 215.809C107.914 215.93 108.1 215.998 108.292 216V216Z" fill="#B5B5B5"/>
<path d="M134.341 212.999H134.435L177.799 208.453C178.006 208.431 178.196 208.334 178.327 208.183C178.457 208.033 178.518 207.841 178.495 207.649C178.486 207.553 178.455 207.46 178.406 207.376C178.356 207.291 178.289 207.217 178.208 207.157C178.127 207.097 178.033 207.053 177.933 207.027C177.833 207.001 177.728 206.994 177.625 207.006L134.246 211.537C134.036 211.549 133.839 211.637 133.7 211.782C133.56 211.927 133.489 212.118 133.501 212.312C133.514 212.506 133.61 212.687 133.767 212.816C133.924 212.944 134.131 213.01 134.341 212.999V212.999Z" fill="#B5B5B5"/>
<path d="M121.343 232.999H121.439L134.795 231.502C134.9 231.49 135.001 231.459 135.092 231.411C135.184 231.362 135.264 231.297 135.329 231.219C135.394 231.142 135.442 231.052 135.47 230.957C135.499 230.862 135.507 230.762 135.494 230.664C135.482 230.566 135.449 230.471 135.397 230.384C135.346 230.298 135.277 230.222 135.194 230.161C135.112 230.1 135.017 230.055 134.916 230.028C134.815 230.001 134.709 229.994 134.605 230.005L121.248 231.502C121.144 231.508 121.042 231.533 120.948 231.576C120.854 231.619 120.77 231.679 120.7 231.753C120.631 231.827 120.578 231.912 120.544 232.005C120.51 232.098 120.495 232.197 120.501 232.295C120.508 232.394 120.534 232.49 120.58 232.578C120.626 232.667 120.69 232.746 120.768 232.811C120.846 232.877 120.937 232.927 121.036 232.959C121.134 232.991 121.239 233.005 121.343 232.999V232.999Z" fill="#B5B5B5"/>
<path d="M114.023 177.516H114.084L140.667 174.471C140.801 174.456 140.925 174.388 141.009 174.283C141.094 174.177 141.133 174.042 141.119 173.907C141.104 173.773 141.036 173.65 140.93 173.565C140.825 173.48 140.69 173.441 140.555 173.456L113.962 176.501C113.829 176.516 113.708 176.583 113.624 176.688C113.54 176.792 113.501 176.926 113.516 177.059C113.53 177.184 113.59 177.299 113.683 177.383C113.777 177.467 113.897 177.514 114.023 177.516Z" fill="#B5B5B5"/>
<path d="M126 249C131.947 243.499 136.52 236.676 139.352 229.081C142.184 221.487 143.196 213.332 142.305 205.275L249 186C249 186 239.848 221.766 227.676 234.239L126 249Z" fill="white"/>
<path d="M125.791 249.999H125.896L227.939 235.128C228.105 235.099 228.258 235.02 228.377 234.901C240.595 222.333 249.6 187.437 249.977 185.951C250.008 185.829 250.008 185.701 249.976 185.579C249.944 185.457 249.882 185.345 249.796 185.254C249.71 185.157 249.602 185.085 249.48 185.042C249.359 185 249.229 184.989 249.102 185.011L142.006 204.43C141.821 204.47 141.657 204.578 141.546 204.731C141.434 204.885 141.383 205.075 141.402 205.264C142.248 213.258 141.233 221.341 138.437 228.873C135.642 236.405 131.142 243.181 125.293 248.665C125.167 248.761 125.075 248.895 125.03 249.047C124.986 249.199 124.991 249.362 125.045 249.511C125.098 249.66 125.199 249.788 125.33 249.876C125.462 249.964 125.618 250.007 125.776 249.999H125.791ZM227.472 233.657L128.038 248.15C133.433 242.602 137.564 235.942 140.145 228.632C142.726 221.321 143.695 213.534 142.986 205.81L248.212 186.724C246.523 192.925 238.106 222.485 227.472 233.657Z" fill="black"/>
<path d="M85.3445 117.999H85.4233L154.798 110.503C154.903 110.494 155.004 110.465 155.096 110.417C155.189 110.369 155.27 110.304 155.335 110.226C155.4 110.147 155.447 110.057 155.474 109.96C155.501 109.864 155.507 109.763 155.492 109.664C155.468 109.467 155.363 109.288 155.201 109.164C155.038 109.041 154.831 108.983 154.624 109.004L85.2499 116.5C85.0408 116.51 84.8444 116.598 84.704 116.746C84.5635 116.894 84.4905 117.088 84.501 117.287C84.5114 117.486 84.6045 117.672 84.7598 117.806C84.915 117.94 85.1197 118.009 85.3287 117.999H85.3445Z" fill="#B5B5B5"/>
<path d="M88.3488 136H88.4456L101.784 134.549C101.89 134.537 101.992 134.505 102.085 134.455C102.178 134.405 102.26 134.338 102.326 134.258C102.392 134.177 102.441 134.085 102.47 133.987C102.499 133.889 102.507 133.786 102.494 133.685C102.481 133.583 102.448 133.485 102.396 133.396C102.343 133.307 102.273 133.229 102.189 133.166C102.105 133.103 102.009 133.056 101.906 133.029C101.803 133.001 101.696 132.993 101.59 133.006L88.268 134.441C88.162 134.446 88.058 134.471 87.9621 134.515C87.8662 134.558 87.7801 134.619 87.7089 134.694C87.6377 134.77 87.5827 134.858 87.547 134.953C87.5113 135.049 87.4957 135.15 87.501 135.251C87.5063 135.353 87.5324 135.452 87.5779 135.544C87.6234 135.635 87.6873 135.718 87.766 135.786C87.8448 135.854 87.9367 135.906 88.0367 135.941C88.1367 135.975 88.2427 135.99 88.3488 135.985V136Z" fill="#B5B5B5"/>
<path d="M116.408 132.999L157.8 128.503C158.007 128.481 158.197 128.381 158.327 128.225C158.458 128.069 158.518 127.87 158.495 127.671C158.472 127.473 158.368 127.291 158.206 127.166C158.043 127.041 157.835 126.983 157.628 127.005L116.236 131.5C116.133 131.506 116.033 131.531 115.941 131.574C115.848 131.617 115.765 131.678 115.697 131.751C115.629 131.825 115.577 131.911 115.543 132.004C115.509 132.097 115.495 132.196 115.501 132.294C115.508 132.393 115.534 132.489 115.579 132.578C115.624 132.666 115.687 132.746 115.763 132.811C115.84 132.876 115.93 132.927 116.027 132.959C116.124 132.991 116.227 133.005 116.33 132.999H116.408Z" fill="#B5B5B5"/>
<path d="M92.2778 153H92.3723L113.803 150.578C114.01 150.55 114.199 150.443 114.328 150.278C114.458 150.113 114.518 149.905 114.495 149.697C114.468 149.489 114.36 149.301 114.195 149.171C114.031 149.042 113.822 148.982 113.614 149.005L92.1991 151.443C92.0961 151.452 91.996 151.483 91.905 151.532C91.8139 151.581 91.7337 151.648 91.6691 151.729C91.6044 151.809 91.5567 151.902 91.5287 152.002C91.5008 152.101 91.4931 152.205 91.5062 152.308C91.5291 152.497 91.6199 152.671 91.7618 152.799C91.9037 152.926 92.0871 152.998 92.2778 153V153Z" fill="#B5B5B5"/>
<path d="M134.298 148H134.393L161.789 144.67C161.893 144.658 161.994 144.625 162.086 144.572C162.178 144.519 162.259 144.447 162.325 144.361C162.39 144.276 162.439 144.177 162.468 144.072C162.498 143.966 162.507 143.855 162.495 143.746C162.484 143.637 162.452 143.531 162.401 143.434C162.351 143.338 162.283 143.253 162.201 143.184C162.119 143.115 162.025 143.064 161.925 143.033C161.824 143.003 161.719 142.993 161.614 143.005L134.203 146.252C133.994 146.281 133.803 146.395 133.673 146.569C133.542 146.743 133.482 146.964 133.505 147.184C133.513 147.401 133.599 147.606 133.747 147.757C133.894 147.909 134.092 147.996 134.298 148V148Z" fill="#B5B5B5"/>
<path d="M96.3068 168H96.3989L113.82 166.289C114.023 166.267 114.207 166.179 114.333 166.044C114.459 165.909 114.517 165.739 114.496 165.569C114.465 165.4 114.359 165.248 114.2 165.143C114.04 165.038 113.838 164.988 113.636 165.003L96.2301 166.662C96.0265 166.671 95.8353 166.747 95.6986 166.873C95.5619 167 95.4908 167.167 95.501 167.337C95.5111 167.508 95.6018 167.668 95.7529 167.783C95.904 167.897 96.1033 167.957 96.3068 167.949V168Z" fill="#B5B5B5"/>
<path d="M133.366 163.985H133.461L165.802 160.49C166.009 160.467 166.198 160.368 166.327 160.213C166.457 160.058 166.518 159.861 166.496 159.664C166.468 159.467 166.36 159.287 166.195 159.163C166.031 159.04 165.822 158.983 165.613 159.004L133.288 162.5C133.079 162.5 132.878 162.579 132.731 162.72C132.583 162.86 132.5 163.051 132.5 163.25C132.5 163.449 132.583 163.64 132.731 163.78C132.878 163.921 133.079 164 133.288 164L133.366 163.985Z" fill="#B5B5B5"/>
<path d="M100.39 185.98L115.821 183.854C116.022 183.826 116.206 183.702 116.332 183.51C116.458 183.318 116.517 183.073 116.496 182.828C116.486 182.706 116.457 182.588 116.409 182.48C116.361 182.372 116.296 182.277 116.217 182.2C116.139 182.124 116.048 182.067 115.951 182.034C115.854 182.001 115.753 181.992 115.653 182.007L100.222 184.133C100.018 184.148 99.8283 184.261 99.6933 184.446C99.5582 184.631 99.4892 184.874 99.5014 185.122C99.5136 185.369 99.606 185.6 99.7583 185.765C99.9106 185.929 100.11 186.013 100.314 185.998L100.39 185.98Z" fill="#B5B5B5"/>
<path d="M126.325 182.999H126.42L169.805 177.683C170.01 177.657 170.199 177.545 170.328 177.371C170.457 177.196 170.518 176.974 170.496 176.752C170.486 176.641 170.456 176.533 170.407 176.435C170.358 176.338 170.291 176.251 170.21 176.182C170.13 176.112 170.037 176.061 169.938 176.031C169.838 176.001 169.734 175.993 169.632 176.007L126.247 181.306C126.039 181.317 125.843 181.417 125.703 181.584C125.563 181.75 125.491 181.97 125.501 182.195C125.511 182.419 125.604 182.63 125.759 182.781C125.913 182.932 126.117 183.01 126.325 182.999V182.999Z" fill="#B5B5B5"/>
<path d="M104.3 199.982H104.392L122.82 197.681C123.021 197.656 123.205 197.544 123.332 197.369C123.458 197.195 123.517 196.973 123.496 196.751C123.486 196.64 123.457 196.533 123.409 196.435C123.361 196.337 123.295 196.251 123.217 196.182C123.138 196.112 123.047 196.061 122.95 196.031C122.853 196.001 122.751 195.993 122.651 196.007L104.223 198.307C104.02 198.321 103.829 198.422 103.694 198.591C103.558 198.759 103.489 198.979 103.501 199.204C103.514 199.428 103.606 199.638 103.759 199.787C103.911 199.936 104.112 200.012 104.315 199.998L104.3 199.982Z" fill="#B5B5B5"/>
<path d="M131.426 196.999L173.785 192.503C173.997 192.481 174.191 192.381 174.324 192.225C174.457 192.069 174.518 191.87 174.495 191.671C174.472 191.473 174.366 191.291 174.2 191.166C174.034 191.041 173.822 190.983 173.61 191.005L131.251 195.5C131.04 195.512 130.842 195.602 130.701 195.751C130.561 195.9 130.489 196.096 130.501 196.294C130.514 196.493 130.61 196.679 130.769 196.811C130.927 196.943 131.135 197.011 131.347 196.999H131.426Z" fill="#B5B5B5"/>
<path d="M242.637 90.3918L219.337 140.473C217.407 144.621 212.481 146.418 208.333 144.489L131.481 108.734C127.334 106.804 125.536 101.878 127.465 97.7305L150.765 47.6491C152.695 43.5017 157.621 41.7039 161.769 43.6334L238.621 79.3886C242.768 81.3181 244.566 86.2444 242.637 90.3918Z" fill="white"/>
<path d="M211.808 145.827C213.483 145.83 215.124 145.353 216.538 144.454C217.951 143.555 219.078 142.271 219.786 140.752L243.131 90.6723C244.113 88.559 244.215 86.1423 243.416 83.9535C242.616 81.7647 240.981 79.9829 238.868 78.9998L162.012 43.2413C159.899 42.2596 157.482 42.1571 155.293 42.9565C153.105 43.7559 151.323 45.3917 150.34 47.5043L127.045 97.5844C126.558 98.63 126.281 99.7614 126.23 100.914C126.18 102.067 126.358 103.218 126.753 104.302C127.148 105.386 127.752 106.382 128.532 107.232C129.312 108.082 130.252 108.77 131.298 109.257L208.154 145.015C209.299 145.547 210.546 145.824 211.808 145.827V145.827ZM158.277 43.3733C159.406 43.374 160.521 43.6199 161.545 44.0939L238.401 79.8524C240.268 80.7229 241.714 82.299 242.42 84.2345C243.126 86.1699 243.035 88.3065 242.167 90.1749V90.1749L218.822 140.265C217.949 142.133 216.371 143.579 214.434 144.285C212.497 144.991 210.359 144.899 208.489 144.031L131.674 108.272C129.807 107.402 128.361 105.826 127.655 103.89C126.949 101.955 127.04 99.8182 127.908 97.9498L151.253 47.8596C151.878 46.523 152.871 45.3916 154.114 44.5973C155.358 43.8031 156.801 43.3785 158.277 43.3733V43.3733Z" fill="black"/>
<path d="M175.418 67.6076L169.54 80.243C168.145 83.2417 164.583 84.5416 161.584 83.1465L152.639 78.9848C149.64 77.5897 148.34 74.0278 149.735 71.0291L155.614 58.3937C157.009 55.395 160.571 54.095 163.57 55.4902L172.515 59.6518C175.514 61.047 176.813 64.6089 175.418 67.6076Z" fill="black"/>
<path d="M230.476 86.6144C232.321 87.4728 233.121 89.6643 232.262 91.5093C231.404 93.3542 229.212 94.154 227.367 93.2957L210.149 85.2849C208.304 84.4265 207.504 82.235 208.363 80.3901C209.221 78.5451 211.412 77.7453 213.257 78.6037L230.476 86.6144Z" fill="#B5B5B5"/>
<path d="M156.121 100.016L154.473 103.559C154.04 104.489 152.935 104.893 152.005 104.46L139.048 98.4315C138.118 97.9987 137.715 96.8939 138.147 95.9638L139.796 92.4208C140.228 91.4907 141.333 91.0875 142.263 91.5202L155.221 97.5486C156.151 97.9813 156.554 99.0861 156.121 100.016Z" fill="#B5B5B5"/>
<path d="M175.899 109.228L174.25 112.771C173.818 113.701 172.713 114.104 171.783 113.671L158.825 107.643C157.895 107.21 157.492 106.105 157.925 105.175L159.573 101.632C160.006 100.702 161.111 100.299 162.041 100.732L174.998 106.76C175.928 107.193 176.331 108.298 175.899 109.228Z" fill="#B5B5B5"/>
<path d="M195.689 118.424L194.04 121.967C193.608 122.897 192.503 123.3 191.573 122.867L178.615 116.839C177.685 116.406 177.282 115.301 177.715 114.371L179.363 110.828C179.796 109.898 180.901 109.495 181.831 109.928L194.788 115.956C195.718 116.389 196.121 117.494 195.689 118.424Z" fill="#B5B5B5"/>
<path d="M215.466 127.625L213.818 131.168C213.385 132.098 212.28 132.501 211.35 132.069L198.393 126.04C197.462 125.607 197.059 124.503 197.492 123.572L199.14 120.029C199.573 119.099 200.678 118.696 201.608 119.129L214.566 125.157C215.496 125.59 215.899 126.695 215.466 127.625Z" fill="#B5B5B5"/>
<path d="M71.1493 81.8824C71.2344 81.8832 71.3183 81.8621 71.3929 81.8213C71.4675 81.7804 71.5304 81.721 71.5756 81.6489L85.1867 60.3339C85.2511 60.221 85.2698 60.0878 85.2388 59.9616C85.2079 59.8353 85.1297 59.7258 85.0204 59.6556C84.911 59.5853 84.7789 59.5596 84.6513 59.5839C84.5236 59.6081 84.4101 59.6804 84.3341 59.7858L70.723 81.1008C70.6505 81.2139 70.6258 81.3512 70.6544 81.4825C70.6829 81.6137 70.7623 81.7284 70.8752 81.8012C70.9556 81.8568 71.0516 81.8853 71.1493 81.8824V81.8824Z" fill="white"/>
<path d="M112.308 75.6909C112.401 75.6909 112.494 75.6654 112.574 75.6171C112.654 75.5688 112.72 75.4996 112.764 75.4168L119.717 61.9884C119.749 61.9299 119.768 61.8657 119.775 61.7996C119.781 61.7335 119.774 61.6668 119.754 61.6034C119.734 61.54 119.702 61.4812 119.659 61.4305C119.616 61.3799 119.563 61.3383 119.504 61.3083C119.445 61.2766 119.38 61.2569 119.313 61.2504C119.246 61.2439 119.179 61.2508 119.114 61.2706C119.05 61.2905 118.991 61.3229 118.939 61.3659C118.887 61.409 118.845 61.4619 118.814 61.5215L111.861 74.9499C111.8 75.0701 111.788 75.2094 111.827 75.3384C111.867 75.4673 111.956 75.5756 112.074 75.6401C112.148 75.6705 112.227 75.6877 112.308 75.6909Z" fill="white"/>
<path d="M192.696 205.885L190.209 211.863C188.382 215.801 194.34 222.45 203.516 226.733C212.691 231.016 221.623 231.28 223.461 227.352L225.947 221.364L192.696 205.885Z" fill="white"/>
</svg>
