<svg width="250" height="250" viewBox="0 0 250 250" fill="none" xmlns="http://www.w3.org/2000/svg">
<rect x="134" y="59.6667" width="18.6667" height="18.6667" fill="white"/>
<rect x="152.667" y="41" width="18.6667" height="18.6667" fill="white"/>
<rect x="171.333" y="41" width="18.6667" height="18.6667" fill="white"/>
<rect x="190" y="41" width="18.6667" height="18.6667" fill="white"/>
<rect x="115.333" y="78.3333" width="18.6667" height="18.6667" fill="white"/>
<rect x="96.667" y="59.6667" width="18.6667" height="18.6667" fill="white"/>
<rect x="78" y="41" width="18.6667" height="18.6667" fill="white"/>
<rect x="59.333" y="41" width="18.6667" height="18.6667" fill="white"/>
<rect x="40.667" y="41" width="18.6667" height="18.6667" fill="white"/>
<rect x="208.667" y="59.6667" width="18.6667" height="18.6667" fill="white"/>
<rect x="208.667" y="78.3333" width="18.6667" height="18.6667" fill="white"/>
<rect x="208.667" y="97" width="18.6667" height="18.6667" fill="white"/>
<rect x="190" y="115.667" width="18.6667" height="18.6667" fill="white"/>
<rect x="171.333" y="134.333" width="18.6667" height="18.6667" fill="white"/>
<rect x="152.667" y="153" width="18.6667" height="18.6667" fill="white"/>
<rect x="134" y="171.667" width="18.6667" height="18.6667" fill="white"/>
<rect x="22" y="59.6667" width="18.6667" height="18.6667" fill="white"/>
<rect x="22" y="78.3333" width="18.6667" height="18.6667" fill="white"/>
<rect x="22" y="97" width="18.6667" height="18.6667" fill="white"/>
<rect x="59.333" y="134.333" width="18.6667" height="18.6667" fill="white"/>
<rect x="40.667" y="115.667" width="18.6667" height="18.6667" fill="white"/>
<rect x="78" y="153" width="18.6667" height="18.6667" fill="white"/>
<rect x="96.667" y="171.667" width="18.6667" height="18.6667" fill="white"/>
<rect x="115.333" y="190.333" width="18.6667" height="18.6667" fill="white"/>
</svg>
