<svg width="250" height="250" viewBox="0 0 250 250" fill="none" xmlns="http://www.w3.org/2000/svg">
<rect x="134.546" y="222.273" width="9.72727" height="9.72727" fill="white"/>
<rect x="144.272" y="222.273" width="9.72727" height="9.72727" fill="white"/>
<rect x="154" y="222.273" width="9.72727" height="9.72727" fill="white"/>
<rect x="163.728" y="222.273" width="9.72727" height="9.72727" fill="white"/>
<rect x="173.454" y="222.273" width="9.72727" height="9.72727" fill="white"/>
<rect x="183.182" y="222.273" width="9.72727" height="9.72727" fill="white"/>
<rect x="192.909" y="212.545" width="9.72727" height="9.72727" fill="white"/>
<rect x="192.909" y="202.818" width="9.72727" height="9.72727" fill="white"/>
<rect x="192.909" y="193.091" width="9.72727" height="9.72727" fill="white"/>
<rect x="192.909" y="183.364" width="9.72727" height="9.72727" fill="white"/>
<rect x="183.182" y="183.364" width="9.72727" height="9.72727" fill="white"/>
<rect x="183.182" y="173.636" width="9.72727" height="9.72727" fill="white"/>
<rect x="183.182" y="163.909" width="9.72727" height="9.72727" fill="white"/>
<rect x="173.454" y="154.182" width="9.72727" height="9.72727" fill="white"/>
<rect x="163.727" y="144.455" width="9.72727" height="9.72727" fill="white"/>
<rect x="154" y="134.727" width="9.72727" height="9.72727" fill="white"/>
<rect x="144.272" y="134.727" width="9.72727" height="9.72727" fill="white"/>
<rect x="134.546" y="134.727" width="9.72727" height="9.72727" fill="white"/>
<rect x="110.228" y="115.273" width="9.72727" height="9.72727" fill="white"/>
<rect x="110.228" y="18" width="9.72727" height="9.72727" fill="white"/>
<rect x="81.0459" y="95.8181" width="9.72727" height="9.72727" fill="white"/>
<rect x="81.0459" y="86.0908" width="9.72727" height="9.72727" fill="white"/>
<rect x="90.7725" y="105.545" width="9.72727" height="9.72727" fill="white"/>
<rect x="168.591" y="76.3635" width="9.72727" height="9.72727" fill="white"/>
<rect x="168.591" y="66.6365" width="9.72727" height="9.72727" fill="white"/>
<rect x="168.591" y="56.9092" width="9.72727" height="9.72727" fill="white"/>
<rect width="9.72727" height="9.72727" transform="matrix(-1 0 0 1 81.0459 56.9092)" fill="white"/>
<rect x="158.863" y="47.1819" width="9.72727" height="9.72727" fill="white"/>
<rect width="9.72727" height="9.72727" transform="matrix(-1 0 0 1 90.7725 47.1819)" fill="white"/>
<rect x="168.591" y="47.1819" width="9.72727" height="9.72727" fill="white"/>
<rect width="9.72727" height="9.72727" transform="matrix(-1 0 0 1 81.0459 47.1819)" fill="white"/>
<rect x="158.863" y="37.4546" width="9.72727" height="9.72727" fill="white"/>
<rect width="9.72727" height="9.72727" transform="matrix(-1 0 0 1 90.7725 37.4546)" fill="white"/>
<rect x="149.137" y="37.4546" width="9.72727" height="9.72727" fill="white"/>
<rect width="9.72727" height="9.72727" transform="matrix(-1 0 0 1 100.5 37.4546)" fill="white"/>
<rect x="149.137" y="27.7273" width="9.72727" height="9.72727" fill="white"/>
<rect x="139.409" y="27.7273" width="9.72727" height="9.72727" fill="white"/>
<rect x="100.5" y="27.7273" width="9.72727" height="9.72727" fill="white"/>
<rect width="9.72727" height="9.72727" transform="matrix(-1 0 0 1 100.5 27.7273)" fill="white"/>
<rect x="168.591" y="86.0908" width="9.72727" height="9.72727" fill="white"/>
<rect x="158.863" y="86.0908" width="9.72727" height="9.72727" fill="white"/>
<rect x="158.863" y="95.8181" width="9.72727" height="9.72727" fill="white"/>
<rect x="149.137" y="95.8181" width="9.72727" height="9.72727" fill="white"/>
<rect x="149.137" y="105.545" width="9.72727" height="9.72727" fill="white"/>
<rect x="129.682" y="115.273" width="9.72727" height="9.72727" fill="white"/>
<rect x="129.682" y="18" width="9.72727" height="9.72727" fill="white"/>
<rect x="105.363" y="134.727" width="9.72727" height="9.72727" fill="white"/>
<rect x="95.6367" y="134.727" width="9.72727" height="9.72727" fill="white"/>
<rect x="85.9092" y="134.727" width="9.72727" height="9.72727" fill="white"/>
<rect x="76.1816" y="144.455" width="9.72727" height="9.72727" fill="white"/>
<rect x="66.4541" y="154.182" width="9.72727" height="9.72727" fill="white"/>
<rect x="56.7275" y="163.909" width="9.72727" height="9.72727" fill="white"/>
<rect x="56.7275" y="173.636" width="9.72727" height="9.72727" fill="white"/>
<rect x="47" y="183.364" width="9.72727" height="9.72727" fill="white"/>
<rect x="47" y="193.091" width="9.72727" height="9.72727" fill="white"/>
<rect x="47" y="202.818" width="9.72727" height="9.72727" fill="white"/>
<rect x="47" y="212.545" width="9.72727" height="9.72727" fill="white"/>
<rect x="56.7275" y="183.364" width="9.72727" height="9.72727" fill="white"/>
<rect x="56.7275" y="222.273" width="9.72727" height="9.72727" fill="white"/>
<rect x="139.409" y="105.545" width="9.72727" height="9.72727" fill="white"/>
<rect x="119.954" y="115.273" width="9.72727" height="9.72727" fill="white"/>
<rect x="119.954" y="18" width="9.72727" height="9.72727" fill="white"/>
<rect x="66.4541" y="222.273" width="9.72727" height="9.72727" fill="white"/>
<rect x="76.1816" y="222.273" width="9.72727" height="9.72727" fill="white"/>
<rect x="90.7725" y="95.8181" width="9.72727" height="9.72727" fill="white"/>
<rect x="71.3184" y="86.0908" width="9.72727" height="9.72727" fill="white"/>
<rect x="71.3184" y="76.3635" width="9.72727" height="9.72727" fill="white"/>
<rect x="71.3184" y="66.6365" width="9.72727" height="9.72727" fill="white"/>
<rect x="100.5" y="105.545" width="9.72727" height="9.72727" fill="white"/>
<rect x="85.9092" y="222.273" width="9.72727" height="9.72727" fill="white"/>
<rect x="95.6367" y="222.273" width="9.72727" height="9.72727" fill="white"/>
<rect x="105.363" y="222.273" width="9.72727" height="9.72727" fill="white"/>
<rect x="115.091" y="222.273" width="9.72727" height="9.72727" fill="white"/>
<rect x="124.818" y="222.273" width="9.72727" height="9.72727" fill="white"/>
</svg>
