<svg width="250" height="250" viewBox="0 0 250 250" fill="none" xmlns="http://www.w3.org/2000/svg">
<rect x="63.9229" y="43.5715" width="13.4615" height="13.5714" fill="white"/>
<rect x="50.4609" y="57.1428" width="13.4615" height="13.5714" fill="white"/>
<rect x="37" y="70.7144" width="13.4615" height="13.5714" fill="white"/>
<rect x="37" y="84.2856" width="13.4615" height="13.5714" fill="white"/>
<rect x="37" y="97.8572" width="13.4615" height="13.5714" fill="white"/>
<rect x="37" y="111.428" width="13.4615" height="13.5714" fill="white"/>
<rect x="50.4609" y="125" width="13.4615" height="13.5714" fill="white"/>
<rect x="63.9229" y="138.572" width="13.4615" height="13.5714" fill="white"/>
<rect x="77.3848" y="152.143" width="13.4615" height="13.5714" fill="white"/>
<rect x="90.8457" y="152.143" width="13.4615" height="13.5714" fill="white"/>
<rect x="104.308" y="152.143" width="13.4615" height="13.5714" fill="white"/>
<rect x="117.77" y="152.143" width="13.4615" height="13.5714" fill="white"/>
<rect x="131.23" y="138.572" width="13.4615" height="13.5714" fill="white"/>
<rect x="144.692" y="152.143" width="13.4615" height="13.5714" fill="white"/>
<rect x="158.154" y="165.714" width="13.4615" height="13.5714" fill="white"/>
<rect x="171.615" y="179.286" width="13.4615" height="13.5714" fill="white"/>
<rect x="185.077" y="192.857" width="13.4615" height="13.5714" fill="white"/>
<rect x="198.539" y="206.428" width="13.4615" height="13.5714" fill="white"/>
<rect x="144.692" y="125" width="13.4615" height="13.5714" fill="white"/>
<rect x="158.154" y="111.428" width="13.4615" height="13.5714" fill="white"/>
<rect x="158.154" y="97.8572" width="13.4615" height="13.5714" fill="white"/>
<rect x="158.154" y="84.2856" width="13.4615" height="13.5714" fill="white"/>
<rect x="158.154" y="70.7144" width="13.4615" height="13.5714" fill="white"/>
<rect x="144.692" y="57.1428" width="13.4615" height="13.5714" fill="white"/>
<rect x="131.23" y="43.5715" width="13.4615" height="13.5714" fill="white"/>
<rect x="117.77" y="30" width="13.4615" height="13.5714" fill="white"/>
<rect x="104.308" y="30" width="13.4615" height="13.5714" fill="white"/>
<rect x="90.8457" y="30" width="13.4615" height="13.5714" fill="white"/>
<rect x="77.3848" y="30" width="13.4615" height="13.5714" fill="white"/>
</svg>
