<svg width="111" height="18" viewBox="0 0 111 18" fill="none" xmlns="http://www.w3.org/2000/svg">
<path d="M21.9258 0.873047V14.4255H24.3029V2.70605H28.5464V14.4255H30.9235V0.873047H21.9258Z" fill="white"/>
<path d="M35.0416 4.61705H32.8806V17.253H35.2185V13.275C35.8078 14.1525 36.6722 14.6205 37.6742 14.6205C39.9531 14.6205 41.5247 12.807 41.5247 9.51155C41.5247 6.23555 39.9924 4.42205 37.792 4.42205C36.6919 4.42205 35.7882 4.92905 35.1595 5.88455L35.0416 4.61705ZM37.0848 12.7875C35.8471 12.7875 35.2185 11.793 35.2185 9.53105C35.2185 7.24955 35.8864 6.25505 37.2027 6.25505C38.4797 6.25505 39.1083 7.24955 39.1083 9.51155C39.1083 11.793 38.4404 12.7875 37.0848 12.7875Z" fill="white"/>
<path d="M50.3781 7.73705C50.3781 5.35805 49.16 4.46105 46.6847 4.46105C45.1327 4.46105 43.9146 4.94855 43.2074 5.35805V7.28855C43.836 6.82055 45.2112 6.31355 46.4096 6.31355C47.5294 6.31355 48.0402 6.70355 48.0402 7.75655V8.30255H47.667C44.0914 8.30255 42.5001 9.47255 42.5001 11.4615C42.5001 13.4505 43.7182 14.562 45.5256 14.562C46.9008 14.562 47.4902 14.1135 47.942 13.6455H48.0402C48.0599 13.899 48.1385 14.2305 48.217 14.4255H50.496C50.4174 13.626 50.3781 12.8265 50.3781 12.027V7.73705ZM48.0402 12.0855C47.7456 12.5145 47.1955 12.8655 46.3703 12.8655C45.3881 12.8655 44.8969 12.3195 44.8969 11.481C44.8969 10.3695 45.7024 9.96005 47.7063 9.96005H48.0402V12.0855Z" fill="white"/>
<path d="M58.0533 14.4255H60.7055L56.9531 9.21905L60.2536 4.61705H57.8961L54.5956 9.21905V4.61705H52.2578V14.4255H54.5956V9.68705L58.0533 14.4255Z" fill="white"/>
<path d="M68.5434 6.45005V4.61705H60.7047V6.45005H63.4551V14.4255H65.793V6.45005H68.5434Z" fill="white"/>
<path d="M69.9275 4.61705V14.4255H72.0099L75.5855 8.36105V14.4255H77.8447V4.61705H75.7623L72.1867 10.6815V4.61705H69.9275Z" fill="white"/>
<path d="M85.6034 14.4255H88.2556L84.5033 9.21905L87.8038 4.61705H85.4463L82.1458 9.21905V4.61705H79.8079V14.4255H82.1458V9.68705L85.6034 14.4255Z" fill="white"/>
<path d="M90.3126 17.448C92.4933 17.448 93.2987 15.9075 93.9667 13.899L97.0511 4.61705H94.7918L92.6111 11.988L90.4305 4.61705H87.9747L91.3734 14.8545C91.1181 15.3225 90.7448 15.615 90.0965 15.615C89.6643 15.615 89.291 15.4785 89.0356 15.225V17.1165C89.0356 17.1165 89.3892 17.448 90.3126 17.448Z" fill="white"/>
<path d="M106.366 14.4255H108.645L108.606 4.61705H105.403L103.262 11.1495L101.337 4.61705H97.9381V14.4255H99.9223V7.09355L102.064 14.4255H103.969L106.366 7.09355V14.4255Z" fill="white"/>
<path fill-rule="evenodd" clip-rule="evenodd" d="M9.06728 18C14.075 18 18.1346 13.9706 18.1346 9C18.1346 4.02944 14.075 0 9.06728 0C4.05956 0 0 4.02944 0 9C0 13.9706 4.05956 18 9.06728 18ZM9.39744 5.23011H10.2073V14.1582H12.0197V3.83301H9.3878C6.73659 3.83301 5.33868 5.19184 5.33868 7.18224C5.33868 8.77073 6.1003 9.70851 7.45964 10.675L5.09766 14.1678H7.06437L9.6963 10.2635L8.78043 9.6511C7.67174 8.9047 7.13186 8.32098 7.13186 7.07698C7.13186 5.97651 7.91276 5.23011 9.39744 5.23011Z" fill="white"/>
</svg>
