<svg width="40" height="40" viewBox="0 0 40 40" fill="none" xmlns="http://www.w3.org/2000/svg">
<rect width="40" height="40" rx="10" transform="matrix(-1 0 0 1 40 0)" fill="#858585" fill-opacity="0.25"/>
<path d="M30 20.4932C30 20.913 29.8214 21.3191 29.5055 21.617L20.4818 30.5126C20.1247 30.8511 19.7538 31 19.3693 31C18.4902 31 17.8584 30.3907 17.8584 29.5648C17.8584 29.1315 18.037 28.766 18.3117 28.4952L21.402 25.4081L25.3851 21.8201L22.1986 22.0097H5.55203C4.6318 22.0097 4 21.3868 4 20.4932C4 19.6132 4.6318 18.9903 5.55203 18.9903H22.1986L25.3851 19.1799L21.402 15.5919L18.3117 12.5048C18.037 12.234 17.8584 11.8685 17.8584 11.4352C17.8584 10.6093 18.4902 10 19.3693 10C19.7538 10 20.1247 10.1489 20.4543 10.4603L29.5055 19.383C29.8214 19.6809 30 20.087 30 20.4932Z" fill="#005CFF"/>
</svg>
