<svg width="50" height="51" viewBox="0 0 50 51" fill="none" xmlns="http://www.w3.org/2000/svg">
<path d="M25 50.5C38.8071 50.5 50 39.3071 50 25.5C50 11.6929 38.8071 0.5 25 0.5C11.1929 0.5 0 11.6929 0 25.5C0 39.3071 11.1929 50.5 25 50.5Z" fill="url(#paint0_linear_1_12611)"/>
<path fill-rule="evenodd" clip-rule="evenodd" d="M11.3164 25.2361C18.6045 22.0608 23.4643 19.9675 25.8959 18.9561C32.8387 16.0684 34.2813 15.5667 35.2216 15.5502C35.4284 15.5465 35.8908 15.5978 36.1903 15.8408C36.4433 16.0461 36.5128 16.3233 36.5461 16.5179C36.5794 16.7124 36.6209 17.1557 36.588 17.502C36.2117 21.4551 34.5838 31.0482 33.7556 35.4757C33.4051 37.3492 32.7151 37.9773 32.0471 38.0388C30.5953 38.1724 29.4928 37.0794 28.0867 36.1576C25.8864 34.7153 24.6433 33.8174 22.5075 32.41C20.0392 30.7834 21.6393 29.8894 23.046 28.4284C23.4141 28.0461 29.8108 22.2278 29.9346 21.7C29.9501 21.634 29.9644 21.3879 29.8183 21.258C29.6721 21.1281 29.4563 21.1725 29.3006 21.2078C29.08 21.2579 25.5649 23.5813 18.7555 28.1778C17.7578 28.8629 16.854 29.1967 16.0443 29.1792C15.1517 29.1599 13.4347 28.6745 12.1582 28.2596C10.5926 27.7507 9.34825 27.4816 9.4566 26.6173C9.51304 26.1671 10.133 25.7067 11.3164 25.2361Z" fill="white"/>
<defs>
<linearGradient id="paint0_linear_1_12611" x1="25" y1="0.5" x2="25" y2="50.1292" gradientUnits="userSpaceOnUse">
<stop/>
<stop offset="1"/>
</linearGradient>
</defs>
</svg>
