<svg width="50" height="51" viewBox="0 0 50 51" fill="none" xmlns="http://www.w3.org/2000/svg">
<g clip-path="url(#clip0_1_12610)">
<path d="M0 24.5C0 13.1863 0 7.52944 3.51472 4.01472C7.02944 0.5 12.6863 0.5 24 0.5H26C37.3137 0.5 42.9705 0.5 46.4853 4.01472C50 7.52944 50 13.1863 50 24.5V26.5C50 37.8137 50 43.4705 46.4853 46.9853C42.9705 50.5 37.3137 50.5 26 50.5H24C12.6863 50.5 7.02944 50.5 3.51472 46.9853C0 43.4705 0 37.8137 0 26.5V24.5Z" fill="black"/>
<path d="M26.5183 36.5C14.9018 36.5 8.27608 28.6171 8 15.5H13.8189C14.01 25.1276 18.2997 29.2057 21.6976 30.0465V15.5H27.1769V23.8033C30.5323 23.4459 34.0571 19.6622 35.2464 15.5H40.7256C39.8124 20.6291 35.9898 24.4129 33.2715 25.9685C35.9898 27.2297 40.3435 30.53 42 36.5H35.9686C34.6731 32.506 31.4455 29.4159 27.1769 28.9955V36.5H26.5183Z" fill="white"/>
</g>
<defs>
<clipPath id="clip0_1_12610">
<rect width="50" height="50" fill="white" transform="translate(0 0.5)"/>
</clipPath>
</defs>
</svg>
