<svg width="46" height="31" viewBox="0 0 46 31" fill="none" xmlns="http://www.w3.org/2000/svg">
<path fill-rule="evenodd" clip-rule="evenodd" d="M22.4282 29.9441H25.1725C25.1725 29.9441 25.9994 29.8438 26.4214 29.3382C26.8225 28.8667 26.8225 27.9942 26.8225 27.9942C26.8225 27.9942 26.7633 23.883 28.482 23.2792C30.176 22.6798 32.3244 27.2474 34.6142 29.0033C36.3635 30.3452 37.6793 30.0572 37.6793 30.0572L43.8115 29.9633C43.8115 29.9633 47.0236 29.7393 45.5054 26.921C45.3889 26.697 44.6441 24.8409 40.9774 21.0327C37.135 17.0624 37.6507 17.7024 42.2684 10.82C45.0738 6.62774 46.2215 4.06548 45.8491 2.97743C45.5321 1.95337 43.4429 2.20725 43.4429 2.20725L36.564 2.27339C36.564 2.27339 36.0484 2.20725 35.676 2.4654C35.3036 2.71928 35.0763 3.29958 35.0763 3.29958C35.0763 3.29958 33.984 6.56161 32.5249 9.31588C29.4254 15.138 28.1937 15.4581 27.7067 15.074C26.5532 14.2399 26.8492 11.7032 26.8492 9.88551C26.8492 4.25109 27.6207 1.8851 25.3577 1.27707C24.6129 1.08293 24.0572 0.957057 22.1398 0.922922C19.6763 0.893054 17.5985 0.944257 16.4202 1.58642C15.6467 2.01951 15.0452 2.97743 15.3908 3.02649C15.8492 3.0905 16.8785 3.33798 17.4228 4.17215C18.1389 5.25167 18.1084 7.66246 18.1084 7.66246C18.1084 7.66246 18.5113 14.3103 17.165 15.1359C16.2196 15.6949 14.9592 14.5385 12.2092 9.25614C10.8055 6.56801 9.74373 3.55985 9.74373 3.55985C9.74373 3.55985 9.54321 3.01369 9.17272 2.69368C8.73921 2.34166 8.109 2.21365 8.109 2.21365L1.54907 2.27766C1.54907 2.27766 0.575105 2.31179 0.233263 2.78968C-0.0837527 3.2057 0.202707 4.10175 0.202707 4.10175C0.202707 4.10175 5.33225 17.5147 11.1493 24.2692C16.4775 30.4604 22.5237 30.0615 22.5237 30.0615L22.4282 29.9441Z" fill="#1A1B22"/>
</svg>
