<svg width="250" height="250" viewBox="0 0 250 250" fill="none" xmlns="http://www.w3.org/2000/svg">
<g clip-path="url(#clip0_96_7418)">
<path d="M169.546 138.683L185.777 193.146C185.777 193.146 152.297 197.466 152.297 196.23C152.297 194.994 145.735 136.299 145.735 136.299L169.546 138.683Z" fill="white"/>
<path d="M153.982 196.94C159.637 196.94 175.682 194.994 185.843 193.66C185.922 193.649 185.997 193.621 186.064 193.579C186.131 193.536 186.188 193.48 186.231 193.414C186.275 193.348 186.304 193.273 186.316 193.195C186.328 193.117 186.324 193.037 186.303 192.96L170.071 138.497C170.041 138.392 169.98 138.298 169.897 138.228C169.813 138.158 169.71 138.114 169.601 138.103L145.779 135.719C145.698 135.712 145.617 135.723 145.541 135.751C145.465 135.78 145.397 135.825 145.341 135.883C145.283 135.939 145.238 136.007 145.211 136.083C145.185 136.159 145.177 136.241 145.188 136.321C147.452 156.549 151.751 195.093 151.751 196.197C151.761 196.376 151.839 196.544 151.97 196.667C152.611 196.91 153.299 197.003 153.982 196.94ZM185.111 192.687C173.473 194.174 155.404 196.241 152.866 195.88C152.451 191.156 147.124 143.483 146.391 136.911L169.164 139.196L185.111 192.687Z" fill="black"/>
<path d="M200.314 125.157C200.172 125.31 194.408 123.768 191.433 127.344C188.458 130.919 192.319 134.112 201.714 132.264C211.11 130.416 200.314 125.157 200.314 125.157Z" fill="white"/>
<path d="M196.759 133.347C198.46 133.33 200.156 133.15 201.823 132.811C204.536 132.275 205.936 131.4 206.1 130.121C206.417 127.65 201.539 125.146 200.555 124.654C200.441 124.615 200.318 124.615 200.205 124.654H199.844C198.312 124.468 193.653 123.877 191.006 127.048C189.825 128.448 189.573 129.88 190.273 131.083C191.181 132.516 193.533 133.347 196.759 133.347ZM200.194 125.693C202.326 126.786 205.137 128.71 204.984 129.924C204.984 130.329 204.416 131.094 201.605 131.652C195.25 132.898 192.056 131.739 191.247 130.372C191.053 129.909 191.009 129.396 191.121 128.906C191.233 128.416 191.495 127.973 191.87 127.639C194.123 124.949 198.181 125.452 199.701 125.649C199.909 125.693 200.062 125.693 200.194 125.693V125.693Z" fill="black"/>
<path d="M214.762 113.731C214.762 113.731 215.944 112.375 215.2 111.423C215.033 111.23 214.822 111.08 214.585 110.985C214.348 110.889 214.091 110.852 213.837 110.875C213.582 110.899 213.337 110.983 213.121 111.12C212.906 111.257 212.726 111.444 212.597 111.664C212.597 111.664 214.456 112.331 214.762 113.731Z" fill="white"/>
<path d="M214.763 114.288C214.843 114.289 214.922 114.273 214.996 114.241C215.069 114.209 215.135 114.162 215.189 114.102C215.736 113.468 216.458 112.112 215.638 111.084C215.454 110.843 215.218 110.648 214.946 110.513C214.675 110.379 214.377 110.309 214.074 110.308C213.701 110.314 213.335 110.408 213.004 110.58C212.674 110.753 212.388 111.001 212.17 111.303C212.111 111.373 212.069 111.456 212.05 111.546C212.031 111.636 212.035 111.729 212.061 111.817C212.084 111.904 212.128 111.985 212.189 112.052C212.25 112.118 212.326 112.169 212.411 112.2C212.849 112.353 214.019 112.965 214.216 113.851C214.237 113.953 214.286 114.046 214.357 114.122C214.429 114.197 214.52 114.251 214.621 114.277L214.763 114.288ZM214.052 111.434C214.185 111.436 214.315 111.468 214.434 111.526C214.554 111.585 214.658 111.669 214.741 111.773C214.803 111.893 214.836 112.026 214.836 112.161C214.836 112.297 214.803 112.43 214.741 112.55C214.411 112.145 214.011 111.805 213.56 111.544C213.711 111.477 213.877 111.455 214.041 111.478L214.052 111.434Z" fill="black"/>
<path d="M212.181 111.609C212.832 111.662 213.447 111.929 213.93 112.368C214.413 112.807 214.736 113.394 214.85 114.037L191.389 144.554C191.244 143.092 190.612 141.72 189.595 140.659C188.578 139.599 187.233 138.91 185.778 138.704L212.181 111.609Z" fill="white"/>
<path d="M191.4 145.112C191.484 145.111 191.568 145.091 191.644 145.053C191.72 145.015 191.786 144.961 191.837 144.893L215.299 114.376C215.351 114.307 215.388 114.226 215.405 114.141C215.422 114.056 215.419 113.968 215.397 113.884C215.243 113.125 214.845 112.437 214.265 111.924C213.685 111.411 212.953 111.101 212.181 111.041C212.106 111.042 212.031 111.057 211.961 111.087C211.892 111.117 211.829 111.161 211.777 111.216L185.373 138.311C185.3 138.384 185.248 138.476 185.225 138.576C185.202 138.677 185.208 138.782 185.242 138.879C185.273 138.977 185.33 139.065 185.407 139.132C185.484 139.2 185.578 139.245 185.679 139.262C187.013 139.444 188.246 140.07 189.18 141.038C190.115 142.006 190.696 143.26 190.831 144.598C190.84 144.712 190.884 144.82 190.956 144.908C191.028 144.996 191.126 145.059 191.236 145.09L191.4 145.112ZM214.227 113.927L191.684 143.242C191.367 142.088 190.759 141.035 189.918 140.183C189.077 139.332 188.032 138.709 186.882 138.377L212.389 112.2C212.825 112.29 213.228 112.499 213.552 112.804C213.877 113.109 214.11 113.498 214.227 113.927V113.927Z" fill="black"/>
<path d="M191.389 144.554L183.382 148.709L182.387 147.78L185.778 138.704C185.778 138.704 192.012 138.081 191.389 144.554Z" fill="white"/>
<path d="M183.382 149.267C183.474 149.268 183.565 149.246 183.645 149.201L191.651 145.046C191.736 145.004 191.809 144.94 191.863 144.862C191.916 144.784 191.949 144.693 191.957 144.598C192.11 143.728 192.062 142.835 191.817 141.986C191.573 141.137 191.138 140.355 190.546 139.7C189.886 139.132 189.12 138.702 188.292 138.433C187.464 138.165 186.59 138.064 185.723 138.136C185.616 138.146 185.514 138.186 185.428 138.252C185.343 138.318 185.278 138.407 185.242 138.508L181.862 147.583C181.821 147.688 181.813 147.802 181.838 147.911C181.864 148.02 181.922 148.12 182.004 148.195L182.999 149.125C183.106 149.217 183.242 149.268 183.382 149.267V149.267ZM190.853 144.194L183.481 148.021L183.043 147.627L186.171 139.251C187.479 139.214 188.756 139.657 189.759 140.498C190.198 140.998 190.524 141.587 190.712 142.225C190.901 142.864 190.949 143.535 190.853 144.194V144.194Z" fill="black"/>
<path d="M183.382 148.709L181.851 150.35L181.129 149.53L182.387 147.78L183.382 148.709Z" fill="white"/>
<path d="M181.851 150.918C181.928 150.919 182.004 150.902 182.074 150.87C182.144 150.838 182.206 150.791 182.256 150.732L183.798 149.092C183.898 148.981 183.952 148.837 183.951 148.688C183.943 148.537 183.876 148.396 183.765 148.294L182.77 147.364C182.711 147.311 182.641 147.27 182.565 147.245C182.489 147.221 182.409 147.212 182.329 147.22C182.25 147.229 182.173 147.253 182.104 147.293C182.035 147.333 181.975 147.387 181.928 147.452L180.67 149.201C180.59 149.301 180.546 149.424 180.546 149.551C180.546 149.679 180.59 149.802 180.67 149.901L181.392 150.721C181.442 150.783 181.505 150.832 181.577 150.867C181.649 150.901 181.728 150.918 181.807 150.918H181.851ZM182.584 148.731L181.862 149.508L182.486 148.644L182.584 148.731Z" fill="black"/>
<path d="M198.826 146.949C197.535 144.336 194.298 138.792 193.554 136.387C191.498 129.826 203.54 123.681 207.434 123.681C211.328 123.681 219.465 137.283 219.465 144.554C219.465 151.826 192.504 207.503 192.504 207.503L166.636 195.672L198.826 146.949Z" fill="white"/>
<path d="M192.471 208.072C192.577 208.071 192.68 208.042 192.769 207.986C192.858 207.929 192.929 207.849 192.975 207.754C194.068 205.48 220.001 151.858 220.001 144.554C220.001 137.25 211.776 123.112 207.434 123.112C204.437 123.112 197.47 126.305 194.309 130.547C193.609 131.363 193.121 132.338 192.886 133.387C192.651 134.435 192.678 135.525 192.964 136.561C194.006 139.139 195.227 141.642 196.617 144.051C197.196 145.145 197.711 146.129 198.126 146.905L166.09 195.344C166.045 195.413 166.015 195.49 166.002 195.571C165.989 195.652 165.993 195.735 166.013 195.814C166.037 195.891 166.076 195.962 166.129 196.022C166.182 196.082 166.247 196.131 166.319 196.164L192.198 208.017C192.28 208.066 192.377 208.085 192.471 208.072ZM207.434 124.238C210.858 124.238 218.864 137.359 218.864 144.554C218.864 151.246 194.878 201.205 192.209 206.77L167.435 195.421L199.296 147.31C199.344 147.223 199.369 147.125 199.369 147.025C199.369 146.926 199.344 146.828 199.296 146.741C198.881 145.91 198.279 144.784 197.623 143.559C196.27 141.212 195.079 138.775 194.057 136.266C193.827 135.399 193.813 134.489 194.017 133.616C194.221 132.743 194.637 131.933 195.228 131.258C198.279 127.114 204.918 124.238 207.434 124.238Z" fill="black"/>
<path d="M61.1981 157.971L29.3148 149.846C30.4086 148.305 43.2712 107.487 56.8339 100.806C68.7013 92.9335 96.8439 87.685 121.705 89.4673C121.705 89.4673 128.268 89.2268 139.774 93.7864C167.797 104.917 173.2 143.68 173.2 143.68L151.324 151.235C151.324 151.235 155.503 201.369 159.451 227.578C159.451 227.578 111.085 237.037 40.6681 225.391C40.6134 225.37 61.0668 165.384 61.1981 157.971Z" fill="#005CFF"/>
<path d="M63.8228 101.932C68.0447 106.306 71.3369 111.555 75.9964 115.677C86.0371 124.555 99.1733 131.586 112.944 130.733C129.175 129.727 143.208 118.64 146.73 102.49C148.918 92.3649 146.643 82.9614 138.811 75.8104C133.397 70.8681 126.463 67.8502 119.375 65.9695C100.551 60.9288 79.4308 63.6077 63.3634 74.6514C60.738 76.2668 58.522 78.4672 56.8883 81.0807C52.8742 88.352 57.4899 95.8311 62.6962 100.828C63.0462 101.167 63.4181 101.55 63.8228 101.932Z" fill="#005CFF"/>
<path d="M104.806 37.1248C106.994 37.0373 108.394 37.9886 110.275 38.6665C113.939 39.9568 115.645 36.8952 118.795 35.266C123.755 32.6884 129.454 31.9062 134.925 33.0523C140.396 34.1983 145.301 37.202 148.808 41.5532C150.991 44.1372 152.404 47.2815 152.888 50.6286C153.347 54.4119 152.286 58.2826 152.943 62.0222C153.344 64.1698 154.285 66.1801 155.678 67.8635C157.071 69.5469 158.87 70.848 160.905 71.6443C157.404 71.9145 153.882 71.5817 150.493 70.6603C151.467 71.8177 152.677 72.7532 154.043 73.4039C155.409 74.0545 156.899 74.4053 158.411 74.4326C154.924 77.1138 150.638 78.5497 146.238 78.5111L153.949 80.3152C147.386 84.5249 139.391 85.7824 131.658 85.4325C116.258 84.6343 90.4668 78.3361 90.9152 58.392C91.1668 50.7489 95.3668 37.5622 104.806 37.1248Z" fill="white"/>
<path d="M134.305 86.0777C140.201 86.0777 147.748 84.9843 154.288 80.8074C154.378 80.7476 154.449 80.6631 154.491 80.5642C154.534 80.4652 154.547 80.356 154.529 80.2497C154.507 80.1457 154.456 80.0498 154.383 79.9727C154.309 79.8955 154.216 79.8401 154.113 79.8123L149.826 78.8173C153.089 78.2615 156.168 76.9178 158.795 74.9028C158.886 74.834 158.954 74.738 158.989 74.6285C159.023 74.519 159.022 74.4014 158.985 74.2926C158.949 74.1837 158.879 74.089 158.786 74.022C158.693 73.9549 158.581 73.9188 158.467 73.9188C156.221 73.882 154.052 73.0926 152.309 71.6772C155.163 72.269 158.087 72.453 160.993 72.2239C161.116 72.2127 161.232 72.1601 161.321 72.0747C161.411 71.9894 161.469 71.8762 161.485 71.7538C161.505 71.63 161.481 71.5031 161.417 71.3952C161.353 71.2873 161.254 71.2052 161.135 71.1633C159.18 70.4113 157.45 69.1714 156.11 67.5617C154.77 65.9521 153.864 64.0262 153.479 61.9676C153.216 60.0022 153.194 58.012 153.413 56.0412C153.584 54.2228 153.584 52.3924 153.413 50.574C152.916 47.123 151.461 43.8805 149.213 41.2143C145.627 36.7648 140.61 33.6942 135.015 32.5241C129.42 31.354 123.592 32.1568 118.522 34.7959C117.59 35.3046 116.705 35.8936 115.875 36.5563C114.103 37.9012 112.703 38.9618 110.406 38.1636C109.914 37.9887 109.455 37.7919 109.006 37.606C107.672 36.9282 106.194 36.5796 104.697 36.5891V36.5891C95.225 37.0046 90.478 49.8414 90.3249 58.3921C90.128 67.4566 95.0828 74.5967 105.058 79.5937C115.033 84.5906 126.933 85.7497 131.582 85.9902C132.501 86.0558 133.386 86.0777 134.305 86.0777ZM152.571 80.6105C145.505 84.7109 137.401 85.2576 131.724 84.9843C127.174 84.7437 115.536 83.6612 105.638 78.697C96.0672 73.9078 91.3202 67.1176 91.5062 58.5014C91.6921 50.3663 96.0563 38.1527 104.828 37.7263C106.163 37.7356 107.477 38.0537 108.667 38.6557C109.138 38.8525 109.619 39.0602 110.133 39.2352C112.966 40.2302 114.738 38.8853 116.608 37.4638C117.385 36.8413 118.216 36.2888 119.091 35.8128C123.936 33.2859 129.507 32.5162 134.856 33.6347C140.205 34.7532 145 37.6907 148.426 41.9469C150.536 44.4374 151.911 47.4665 152.396 50.6943C152.56 52.4363 152.56 54.1899 152.396 55.9319C152.174 57.9907 152.203 60.0689 152.484 62.1207C152.829 63.9937 153.571 65.7714 154.659 67.3347C155.748 68.8979 157.158 70.2107 158.795 71.1852C156.067 71.1817 153.353 70.8139 150.723 70.0918C150.609 70.0589 150.489 70.0635 150.378 70.1049C150.268 70.1463 150.174 70.2222 150.11 70.3214C150.043 70.4157 150.007 70.5284 150.007 70.6439C150.007 70.7595 150.043 70.8722 150.11 70.9665C151.841 73.0254 154.257 74.3918 156.913 74.8154C153.75 76.8773 150.047 77.9578 146.271 77.9207C146.136 77.9173 146.005 77.9649 145.903 78.0541C145.802 78.1433 145.738 78.2675 145.724 78.4018C145.707 78.5357 145.74 78.6711 145.817 78.7822C145.893 78.8932 146.008 78.9719 146.14 79.0032L152.571 80.6105Z" fill="black"/>
<path d="M123.63 98.2913L122.536 117.12C122.536 117.12 113.928 126.961 102.848 120.914C91.7685 114.868 92.1951 105.278 92.1951 105.278L99.4686 69.9277C99.4686 69.9277 109.52 67.6097 112.08 47.8186C120.654 54.6058 130.902 58.9538 141.743 60.404C141.743 60.404 141.546 82.5459 137.641 91.348C133.736 100.15 123.63 98.2913 123.63 98.2913Z" fill="white"/>
<path d="M110.122 123.418C117.647 123.418 122.886 117.568 122.952 117.481C123.033 117.391 123.079 117.274 123.083 117.153L124.177 98.9036C126.485 99.1332 134.71 99.3519 138.177 91.5339C142.082 82.7864 142.311 61.2787 142.322 60.3711C142.321 60.2391 142.274 60.1117 142.187 60.0116C142.101 59.9114 141.982 59.8451 141.852 59.8244C131.126 58.3625 120.985 54.0671 112.473 47.3812C112.398 47.3154 112.307 47.2715 112.208 47.2542C112.11 47.2368 112.009 47.2467 111.916 47.2828C111.824 47.3184 111.743 47.3775 111.682 47.4544C111.62 47.5312 111.58 47.6229 111.566 47.7202C110.275 57.736 107.015 63.0828 104.511 65.8164C103.157 67.4493 101.378 68.6755 99.3701 69.3591C99.2696 69.3855 99.1785 69.4394 99.107 69.5147C99.0355 69.5901 98.9864 69.6839 98.9654 69.7856L91.6809 105.169C91.6809 105.355 91.3528 115.25 102.619 121.395C104.908 122.694 107.49 123.391 110.122 123.418ZM122.011 116.858C120.917 118.05 113.086 125.857 103.1 120.4C92.4684 114.583 92.7309 105.344 92.7309 105.256L99.9388 70.2667C101.754 69.6653 109.98 66.0351 112.484 48.7589C120.892 55.108 130.761 59.2438 141.185 60.7866C141.185 64.0669 140.638 83.1582 137.149 91.0418C133.463 99.33 124.122 97.7664 123.728 97.7008C123.652 97.6861 123.574 97.6872 123.499 97.7041C123.424 97.7211 123.353 97.7534 123.291 97.7992C123.231 97.8496 123.182 97.9113 123.146 97.9807C123.111 98.0501 123.089 98.126 123.083 98.2038L122.011 116.858Z" fill="black"/>
<path d="M103.571 79.8342C101.001 80.2211 98.3824 79.5765 96.2862 78.0409C94.8708 76.9204 93.7673 75.4549 93.0816 73.7853C92.3959 72.1156 92.1511 70.2977 92.3705 68.5062C92.4378 67.1672 92.812 65.8616 93.4643 64.6902C93.7836 64.1043 94.2253 63.594 94.7594 63.194C95.2935 62.794 95.9075 62.5137 96.5596 62.3721C98.1748 62.2717 99.779 62.6975 101.132 63.5858C103.254 64.6792 103.319 65.8929 104.479 67.6862C104.347 67.5221 104.249 67.0629 104.118 66.8989" fill="white"/>
<path d="M102.105 80.5011C102.625 80.4991 103.144 80.4589 103.658 80.3809C103.803 80.3567 103.932 80.2766 104.018 80.1579C104.104 80.0392 104.14 79.8915 104.117 79.7467C104.107 79.6759 104.082 79.608 104.045 79.5469C104.008 79.4858 103.958 79.4328 103.9 79.391C103.842 79.3492 103.776 79.3195 103.707 79.3036C103.637 79.2877 103.565 79.2859 103.494 79.2984C101.071 79.6549 98.6052 79.0377 96.6361 77.5817C95.296 76.5158 94.2529 75.123 93.6074 73.5373C92.9618 71.9517 92.7355 70.2266 92.9501 68.5281C92.9939 67.2736 93.327 66.0462 93.9236 64.9416C94.2057 64.4298 94.5934 63.9838 95.0611 63.6331C95.5287 63.2825 96.0656 63.0353 96.6361 62.9079C97.9924 62.6673 99.3486 63.2906 100.858 64.0669C101.895 64.5713 102.707 65.4448 103.133 66.5162C103.363 66.9317 103.614 67.4019 103.953 67.9158C103.976 67.9602 104.006 68.0007 104.041 68.036C104.129 68.1448 104.256 68.2148 104.395 68.2312C104.534 68.2475 104.674 68.2089 104.785 68.1235C104.9 68.042 104.979 67.9181 105.004 67.7788C105.028 67.6395 104.997 67.4961 104.916 67.38V67.38C104.916 67.38 104.916 67.2378 104.839 67.1613C104.775 66.9634 104.683 66.7756 104.566 66.6037C104.509 66.5374 104.438 66.485 104.358 66.4506L104.15 66.0569C103.61 64.7885 102.632 63.7563 101.394 63.1484C100.103 62.4814 98.3205 61.5629 96.4939 61.88C95.7513 62.0274 95.0497 62.3345 94.4377 62.7801C93.8258 63.2257 93.3182 63.7991 92.9501 64.4605C92.2795 65.7111 91.9053 67.099 91.8564 68.5172C91.6253 70.3996 91.8844 72.3097 92.6088 74.0626C93.3331 75.8154 94.4981 77.3515 95.9908 78.522C97.7667 79.8145 99.9083 80.5077 102.105 80.5011V80.5011Z" fill="black"/>
<path d="M125.074 68.364C125.074 68.364 129.176 79.1671 127.316 80.4573C125.457 81.7476 121.53 79.6919 121.53 79.6919" fill="white"/>
<path d="M125.697 81.4306C126.381 81.462 127.058 81.2785 127.633 80.9058C129.689 79.4843 126.539 70.8025 125.599 68.1673C125.547 68.0331 125.445 67.9245 125.314 67.8651C125.183 67.8058 125.034 67.8004 124.899 67.8502C124.831 67.8757 124.769 67.9143 124.716 67.964C124.663 68.0136 124.621 68.0732 124.591 68.1393C124.562 68.2054 124.546 68.2768 124.544 68.3491C124.542 68.4215 124.555 68.4935 124.581 68.561C126.485 73.5798 127.863 79.3859 127.01 79.9982C125.708 80.8948 122.799 79.7358 121.792 79.211C121.663 79.1448 121.513 79.1318 121.374 79.1746C121.235 79.2175 121.118 79.313 121.049 79.4406C120.984 79.5697 120.973 79.7192 121.018 79.8565C121.063 79.9938 121.16 80.1076 121.289 80.1732C122.652 80.9026 124.155 81.3314 125.697 81.4306V81.4306Z" fill="black"/>
<path d="M117.006 68.0907C116.173 67.8215 115.806 66.6482 116.187 65.4703C116.568 64.2923 117.552 63.5557 118.385 63.8249C119.219 64.0942 119.586 65.2674 119.205 66.4454C118.824 67.6234 117.84 68.36 117.006 68.0907Z" fill="black"/>
<path d="M132.308 71.6678C131.432 71.6559 130.736 70.6428 130.753 69.4049C130.77 68.1671 131.493 67.1733 132.369 67.1852C133.245 67.1971 133.941 68.2103 133.925 69.4481C133.908 70.686 133.184 71.6798 132.308 71.6678Z" fill="black"/>
<path d="M123.772 94.3331C124.822 94.3605 125.855 94.0585 126.725 93.4693C130.17 90.9544 130.422 85.3998 130.433 85.1592C130.436 85.03 130.394 84.9037 130.314 84.802C130.234 84.7003 130.122 84.6294 129.995 84.6016C115.842 81.5072 115.689 81.6165 115.437 81.8024C115.375 81.8495 115.322 81.9086 115.283 81.9762C115.244 82.0437 115.218 82.1185 115.208 82.196C114.989 84.4005 115.292 86.6256 116.094 88.691C116.576 89.9572 117.339 91.0974 118.326 92.0255C119.313 92.9536 120.498 93.6455 121.792 94.0488C122.436 94.2348 123.102 94.3305 123.772 94.3331V94.3331ZM129.295 85.5857C129.164 86.9087 128.574 90.7794 126.102 92.5727C125.513 92.9338 124.852 93.1603 124.165 93.2359C123.479 93.3116 122.784 93.2344 122.131 93.01C120.991 92.6552 119.946 92.0469 119.075 91.2307C118.203 90.4145 117.528 89.4117 117.1 88.2974C116.423 86.5586 116.139 84.6916 116.269 82.8302C118.15 83.1692 124.789 84.5906 129.295 85.5747V85.5857Z" fill="black"/>
<path d="M116.597 88.5162C118.697 93.5897 123.958 94.8034 126.441 93.043C125.883 91.1076 124.866 89.0957 122.974 88.3631C120.897 87.6551 118.637 87.7093 116.597 88.5162V88.5162Z" fill="black"/>
<path d="M123.772 94.3222C124.821 94.3514 125.853 94.0533 126.725 93.4693C126.816 93.4037 126.883 93.3115 126.918 93.2056C126.954 93.0998 126.955 92.9855 126.922 92.8789C126.178 90.2109 124.899 88.5052 123.138 87.8382C120.948 87.0943 118.567 87.1446 116.411 87.9803C116.341 88.0059 116.277 88.0452 116.223 88.0959C116.168 88.1466 116.124 88.2077 116.094 88.2755C116.04 88.4125 116.04 88.565 116.094 88.702C116.579 89.9653 117.343 91.1026 118.33 92.0286C119.317 92.9545 120.501 93.6452 121.792 94.0489C122.437 94.2307 123.103 94.3227 123.772 94.3222V94.3222ZM125.763 92.7805C124.626 93.3176 123.325 93.3959 122.131 92.9992C121.084 92.6789 120.116 92.1414 119.29 91.4216C118.465 90.7019 117.801 89.8161 117.341 88.8223C119.095 88.2394 120.99 88.2394 122.744 88.8223C124.089 89.369 125.074 90.703 125.763 92.7805Z" fill="black"/>
<path d="M237.513 211.461H12.6346L-23.4488 277.341H273.596L237.513 211.461Z" fill="white"/>
<path d="M-23.4486 277.887H273.596C273.691 277.887 273.783 277.862 273.865 277.816C273.948 277.771 274.017 277.705 274.067 277.625C274.113 277.541 274.137 277.447 274.137 277.351C274.137 277.256 274.113 277.162 274.067 277.078L237.972 211.199C237.926 211.112 237.857 211.039 237.772 210.989C237.687 210.939 237.59 210.913 237.491 210.915H12.6457C12.547 210.913 12.45 210.939 12.365 210.989C12.2801 211.039 12.2107 211.112 12.1644 211.199L-23.9299 277.078C-23.9758 277.162 -23.9999 277.256 -23.9999 277.351C-23.9999 277.447 -23.9758 277.541 -23.9299 277.625C-23.879 277.706 -23.808 277.773 -23.7237 277.819C-23.6394 277.865 -23.5446 277.889 -23.4486 277.887ZM272.667 276.794H-22.5189L12.9629 212.008H237.185L272.667 276.794Z" fill="#B5B5B5"/>
<path d="M234.024 168.96L233.543 166.882C232.449 164.805 231.235 163.405 228.413 163.405H121.366C120.072 163.407 118.813 163.828 117.778 164.605C116.743 165.381 115.987 166.472 115.624 167.713L98.2219 227.48C97.7729 228.762 97.8295 230.166 98.3802 231.407C98.931 232.649 99.9344 233.633 101.186 234.161L103.078 234.609L234.024 168.96Z" fill="white"/>
<path d="M103.078 235.156C103.161 235.153 103.243 235.135 103.319 235.101L234.264 169.43C234.375 169.376 234.463 169.286 234.515 169.174C234.567 169.063 234.579 168.937 234.549 168.817L234.067 166.74C234.072 166.693 234.072 166.645 234.067 166.598C232.974 164.619 231.716 162.836 228.456 162.836H121.41C119.998 162.842 118.626 163.303 117.497 164.15C116.368 164.997 115.542 166.185 115.142 167.538L97.7295 227.382C97.2404 228.794 97.3074 230.339 97.9169 231.704C98.5263 233.069 99.6325 234.15 101.011 234.729L102.969 235.2L103.078 235.156ZM233.356 168.664L102.969 234.03L101.273 233.636C98.6373 232.608 98.0904 229.798 98.7139 227.633L116.116 167.866C116.449 166.74 117.137 165.751 118.077 165.046C119.016 164.341 120.158 163.957 121.333 163.952H228.413C230.83 163.952 231.869 165.045 233.028 167.079L233.356 168.664Z" fill="black"/>
<path d="M103.078 234.609H212.313C213.055 234.601 213.775 234.354 214.366 233.905C214.957 233.456 215.387 232.829 215.594 232.116L233.98 168.96C234.049 168.717 234.062 168.462 234.016 168.214C233.97 167.967 233.867 167.733 233.715 167.532C233.564 167.33 233.368 167.167 233.142 167.054C232.917 166.941 232.668 166.882 232.416 166.882H120.261L101.262 232.193C101.179 232.474 101.162 232.772 101.214 233.061C101.266 233.35 101.385 233.623 101.562 233.858C101.738 234.093 101.967 234.283 102.231 234.414C102.494 234.544 102.784 234.611 103.078 234.609V234.609Z" fill="black"/>
<path d="M103.078 235.156H212.312C213.179 235.152 214.022 234.869 214.715 234.349C215.408 233.829 215.916 233.1 216.163 232.269L234.549 169.113C234.638 168.79 234.651 168.451 234.588 168.122C234.525 167.793 234.387 167.483 234.185 167.215C233.983 166.948 233.723 166.731 233.424 166.58C233.124 166.429 232.795 166.349 232.46 166.346H120.261C120.145 166.344 120.032 166.381 119.939 166.45C119.846 166.519 119.778 166.617 119.747 166.729L100.737 232.039C100.632 232.403 100.613 232.785 100.681 233.157C100.749 233.528 100.903 233.879 101.13 234.182C101.357 234.484 101.651 234.729 101.989 234.898C102.327 235.067 102.7 235.155 103.078 235.156V235.156ZM232.46 167.429C232.626 167.431 232.79 167.472 232.938 167.547C233.087 167.623 233.216 167.731 233.316 167.864C233.416 167.997 233.485 168.151 233.516 168.314C233.548 168.477 233.542 168.646 233.499 168.806L215.123 231.963C214.943 232.568 214.572 233.099 214.065 233.477C213.559 233.855 212.944 234.061 212.312 234.062H103.078C102.867 234.064 102.658 234.016 102.468 233.923C102.278 233.83 102.113 233.694 101.984 233.527C101.861 233.359 101.778 233.165 101.741 232.961C101.705 232.756 101.717 232.545 101.776 232.346L120.699 167.429H232.46Z" fill="black"/>
<path d="M121.399 207.7L128.038 235.921C128.389 237.432 129.242 238.778 130.458 239.742C131.674 240.705 133.18 241.227 134.732 241.224H203.825C204.862 241.224 205.885 240.989 206.819 240.537C207.752 240.085 208.572 239.429 209.216 238.616C209.859 237.803 210.311 236.855 210.537 235.843C210.762 234.831 210.756 233.781 210.519 232.772L204.667 207.7H210.387L215.987 231.482C216.41 233.313 216.414 235.216 216 237.049C215.585 238.882 214.762 240.598 213.592 242.069C212.422 243.541 210.935 244.729 209.242 245.546C207.549 246.364 205.694 246.789 203.814 246.79H134.677C131.875 246.788 129.156 245.843 126.958 244.107C124.759 242.372 123.209 239.946 122.558 237.222L115.624 207.7H121.399Z" fill="white"/>
<path d="M134.732 247.413H203.825C205.792 247.412 207.734 246.967 209.505 246.111C211.275 245.254 212.83 244.009 214.051 242.467C215.272 240.925 216.129 239.128 216.557 237.208C216.985 235.289 216.974 233.298 216.524 231.383L210.935 207.59C210.905 207.471 210.836 207.365 210.739 207.289C210.642 207.214 210.522 207.174 210.399 207.175H204.624C204.542 207.176 204.461 207.195 204.387 207.231C204.313 207.267 204.249 207.319 204.197 207.383C204.147 207.447 204.112 207.521 204.095 207.601C204.078 207.68 204.079 207.763 204.099 207.842L209.994 232.914C210.211 233.844 210.216 234.811 210.007 235.742C209.799 236.674 209.383 237.547 208.789 238.295C208.196 239.044 207.442 239.649 206.582 240.065C205.723 240.481 204.78 240.698 203.825 240.699H134.688C133.259 240.702 131.871 240.22 130.75 239.332C129.63 238.445 128.843 237.204 128.519 235.812L121.88 207.59C121.853 207.472 121.786 207.366 121.691 207.291C121.595 207.215 121.477 207.174 121.355 207.175H115.58C115.499 207.176 115.418 207.196 115.345 207.232C115.272 207.268 115.207 207.32 115.156 207.383C115.105 207.447 115.069 207.521 115.049 207.6C115.03 207.679 115.028 207.762 115.044 207.842L121.99 237.364C122.657 240.236 124.283 242.796 126.599 244.622C128.914 246.448 131.783 247.433 134.732 247.413V247.413ZM210.016 208.268L215.485 231.635C215.9 233.391 215.911 235.218 215.518 236.979C215.125 238.74 214.338 240.389 213.216 241.803C212.094 243.216 210.666 244.357 209.039 245.139C207.413 245.921 205.63 246.325 203.825 246.32H134.688C131.991 246.327 129.371 245.42 127.257 243.745C125.143 242.071 123.66 239.729 123.051 237.102L116.269 208.268H120.918L127.48 236.063C127.855 237.697 128.776 239.155 130.09 240.196C131.404 241.237 133.033 241.8 134.71 241.793H203.825C204.946 241.793 206.052 241.54 207.061 241.052C208.069 240.564 208.955 239.855 209.65 238.977C210.346 238.098 210.833 237.074 211.076 235.981C211.32 234.887 211.312 233.753 211.055 232.663L205.324 208.268H210.016Z" fill="black"/>
<path d="M32.3002 150.153C32.3002 150.153 22.5219 193.562 30.5283 204.649C38.5346 215.737 94.448 213.987 94.448 213.987C94.448 213.987 103.515 224.867 111.39 224.145C119.266 223.424 114.672 208.531 105.408 202.331L106.687 197.159L57.3912 189.254L63.9538 158.058" fill="white"/>
<path d="M110.669 224.725C110.939 224.725 111.212 224.725 111.489 224.725C112.508 224.674 113.482 224.287 114.258 223.624C115.033 222.961 115.568 222.06 115.777 221.062C117.013 216.218 113.053 206.978 106.086 202.124L107.267 197.323C107.286 197.252 107.29 197.177 107.279 197.103C107.268 197.03 107.241 196.96 107.202 196.897C107.16 196.833 107.106 196.778 107.042 196.736C106.977 196.695 106.905 196.668 106.83 196.656L58.1023 188.838L64.5556 158.222C64.5699 158.152 64.5703 158.079 64.5567 158.009C64.543 157.938 64.5156 157.871 64.476 157.811C64.4364 157.752 64.3853 157.7 64.3258 157.66C64.2663 157.62 64.1994 157.592 64.129 157.577C64.0593 157.561 63.9871 157.559 63.9166 157.572C63.8461 157.584 63.7788 157.61 63.7187 157.649C63.6586 157.688 63.6068 157.738 63.5664 157.797C63.5261 157.856 63.4979 157.923 63.4837 157.993L56.9211 189.188C56.905 189.261 56.9045 189.337 56.9195 189.411C56.9346 189.484 56.9649 189.554 57.0086 189.615C57.0497 189.676 57.1031 189.728 57.1652 189.767C57.2273 189.807 57.2968 189.833 57.3695 189.844L106.075 197.662L104.981 202.255C104.953 202.362 104.959 202.475 104.998 202.579C105.037 202.683 105.108 202.772 105.2 202.834C111.894 207.317 115.908 216.338 114.759 220.821C114.612 221.594 114.208 222.294 113.612 222.808C113.016 223.322 112.264 223.62 111.478 223.653C103.986 224.353 95.0716 213.812 95.006 213.692C94.9528 213.628 94.8858 213.577 94.81 213.543C94.7342 213.509 94.6516 213.493 94.5685 213.495C94.0107 213.495 38.7864 215.103 31.0644 204.376C23.3425 193.649 32.8145 150.798 32.9129 150.328C32.9287 150.256 32.9302 150.182 32.9173 150.109C32.9045 150.037 32.8774 149.968 32.8378 149.906C32.7982 149.844 32.7468 149.79 32.6865 149.748C32.6262 149.706 32.5582 149.677 32.4864 149.661C32.4145 149.645 32.3403 149.643 32.2679 149.656C32.1955 149.669 32.1264 149.696 32.0644 149.736C32.0025 149.775 31.9489 149.827 31.9068 149.887C31.8647 149.947 31.8349 150.015 31.8191 150.087C31.4144 151.87 22.0846 193.824 30.1457 205.021C38.0208 215.955 89.6356 214.731 94.306 214.589C95.542 216.032 103.341 224.725 110.669 224.725Z" fill="black"/>
<path d="M90.959 128.656C91.0435 128.655 91.1262 128.632 91.1997 128.59C91.2667 128.56 91.327 128.516 91.3767 128.462C91.4265 128.408 91.4648 128.344 91.4893 128.274C91.5138 128.205 91.5241 128.131 91.5194 128.058C91.5147 127.984 91.4953 127.913 91.4622 127.847C83.5214 111.445 63.1336 100.413 62.9258 100.303C62.8615 100.267 62.7906 100.245 62.7174 100.237C62.6441 100.229 62.57 100.236 62.4995 100.257C62.429 100.279 62.3636 100.314 62.3072 100.362C62.2508 100.409 62.2045 100.467 62.1711 100.533C62.1349 100.598 62.1121 100.67 62.1041 100.744C62.0961 100.818 62.103 100.893 62.1244 100.964C62.1458 101.035 62.1813 101.102 62.2288 101.159C62.2762 101.217 62.3348 101.264 62.4008 101.298C62.5977 101.408 82.6683 112.233 90.445 128.339C90.4932 128.434 90.5667 128.514 90.6574 128.57C90.7481 128.626 90.8525 128.655 90.959 128.656V128.656Z" fill="black"/>
<path d="M124.669 127.88C124.749 127.896 124.83 127.896 124.91 127.88C143.963 119.132 146.271 99.9096 146.293 99.7237C146.308 99.5745 146.264 99.4253 146.17 99.3085C146.076 99.1918 145.939 99.117 145.79 99.1005C145.716 99.0913 145.642 99.0969 145.571 99.1167C145.5 99.1366 145.433 99.1704 145.375 99.2161C145.317 99.2619 145.269 99.3188 145.233 99.3834C145.197 99.448 145.174 99.5191 145.166 99.5925C145.166 99.7784 142.891 118.378 124.385 126.753C124.249 126.815 124.144 126.928 124.091 127.067C124.038 127.206 124.041 127.36 124.1 127.497C124.142 127.613 124.22 127.712 124.322 127.781C124.424 127.85 124.546 127.884 124.669 127.88V127.88Z" fill="black"/>
<path d="M211.482 152.668C211.6 152.634 211.705 152.562 211.779 152.463C211.854 152.365 211.894 152.244 211.894 152.121C211.894 151.997 211.854 151.877 211.779 151.778C211.705 151.68 211.6 151.608 211.482 151.574C203.235 151.323 199.231 146.665 199.188 146.621C199.141 146.564 199.084 146.517 199.019 146.482C198.954 146.447 198.883 146.426 198.81 146.419C198.737 146.412 198.663 146.419 198.592 146.441C198.522 146.462 198.457 146.497 198.4 146.544C198.284 146.64 198.211 146.778 198.197 146.928C198.183 147.077 198.228 147.226 198.324 147.343C198.499 147.55 202.699 152.438 211.449 152.7L211.482 152.668Z" fill="black"/>
<path d="M64.0197 158.616C64.1456 158.617 64.2682 158.575 64.3675 158.498C64.4668 158.42 64.5369 158.312 64.5666 158.189C64.5666 157.993 69.7182 137.841 70.4292 125.758C70.4336 125.685 70.4235 125.612 70.3995 125.542C70.3755 125.473 70.3381 125.409 70.2893 125.354C70.2405 125.299 70.1814 125.255 70.1153 125.223C70.0492 125.191 69.9774 125.172 69.9042 125.168C69.755 125.159 69.6083 125.209 69.4958 125.307C69.3832 125.405 69.3138 125.544 69.3026 125.693C68.5916 137.666 63.5166 157.708 63.4728 157.916C63.4361 158.061 63.458 158.215 63.5338 158.343C63.6095 158.472 63.733 158.566 63.8775 158.605L64.0197 158.616Z" fill="black"/>
<path d="M152.177 162.213C152.252 162.209 152.324 162.19 152.391 162.157C152.458 162.125 152.518 162.079 152.567 162.023C152.615 161.967 152.653 161.902 152.676 161.831C152.699 161.76 152.708 161.686 152.702 161.612L149.99 119.132C149.986 119.058 149.967 118.985 149.934 118.918C149.901 118.851 149.856 118.792 149.8 118.743C149.744 118.694 149.678 118.657 149.608 118.633C149.537 118.61 149.462 118.601 149.388 118.607C149.314 118.61 149.242 118.627 149.175 118.659C149.108 118.69 149.049 118.735 149 118.79C148.95 118.845 148.913 118.91 148.89 118.98C148.866 119.05 148.857 119.124 148.863 119.197L151.619 161.677C151.625 161.821 151.686 161.958 151.79 162.057C151.894 162.157 152.033 162.213 152.177 162.213Z" fill="black"/>
<path d="M41.1272 263.224C26.2127 263.224 14.1222 259.587 14.1222 255.1C14.1222 250.613 26.2127 246.976 41.1272 246.976C56.0417 246.976 68.1323 250.613 68.1323 255.1C68.1323 259.587 56.0417 263.224 41.1272 263.224Z" fill="white"/>
<path d="M61.482 231.898L62.1273 232.018C64.0791 232.309 65.855 233.309 67.1149 234.828C67.8212 235.907 68.211 237.162 68.24 238.451C68.269 239.74 67.936 241.012 67.279 242.121C64.4133 247.282 57.435 248.682 52.0537 249.217C51.2923 249.341 50.5122 249.281 49.7787 249.042C49.4167 248.919 49.1018 248.687 48.8767 248.377C48.6516 248.068 48.5273 247.697 48.5209 247.315C48.5672 247 48.6915 246.703 48.8826 246.449C49.0736 246.195 49.3253 245.992 49.6146 245.861C50.1784 245.599 50.7803 245.43 51.3975 245.358C54.7444 244.811 58.2663 244.406 61.3289 242.865C63.1117 241.957 65.6055 239.89 64.3039 237.66C63.8483 236.954 63.1937 236.398 62.4226 236.063C59.3491 234.598 56.4288 235.714 53.3991 236.61C53.1788 236.691 52.944 236.724 52.71 236.709C52.4204 236.629 52.1701 236.446 52.0068 236.194C51.8435 235.942 51.7784 235.639 51.824 235.342C51.9225 234.019 53.2459 233.155 54.4928 232.663C56.7195 231.818 59.1251 231.554 61.482 231.898V231.898Z" fill="white"/>
<path d="M23.299 170.425C23.4431 170.419 23.5795 170.358 23.6794 170.254C23.7793 170.15 23.8351 170.011 23.835 169.867C23.835 168.61 23.0365 138.967 19.7662 128.7C16.4958 118.432 10.3598 114.157 10.1082 113.993C9.98783 113.912 9.84008 113.882 9.69752 113.909C9.55496 113.937 9.42926 114.02 9.34804 114.141C9.26681 114.261 9.23673 114.409 9.26442 114.551C9.29211 114.694 9.37529 114.819 9.49567 114.901C9.5613 114.901 15.5442 119.045 18.7271 129.028C21.9099 139.011 22.7303 169.583 22.7412 169.889C22.7426 169.961 22.7582 170.032 22.787 170.098C22.8158 170.163 22.8573 170.223 22.9091 170.273C22.9609 170.322 23.022 170.361 23.0889 170.388C23.1558 170.414 23.2272 170.426 23.299 170.425Z" fill="white"/>
</g>
<defs>
<clipPath id="clip0_96_7418">
<rect width="250" height="250" rx="30" fill="white"/>
</clipPath>
</defs>
</svg>
