<svg width="250" height="250" viewBox="0 0 250 250" fill="none" xmlns="http://www.w3.org/2000/svg">
<g clip-path="url(#clip0_96_7529)">
<path d="M172.77 232H220.67H220.815C221.268 224.315 220.889 216.603 219.683 209V209C208.779 212.279 193.495 215.702 175.177 219.512L172.626 220.042C168.678 221.03 163.816 220.621 161.674 225.852C161.481 226.31 161.265 227.106 161 227.974H161.481L170.219 228.384C170.639 228.397 171.049 228.515 171.413 228.725C171.777 228.936 172.084 229.233 172.305 229.591C172.527 229.949 172.657 230.356 172.683 230.777C172.71 231.197 172.632 231.617 172.457 232H172.77Z" fill="black"/>
<path d="M169.139 205.004C171.339 206.55 173.074 208.667 174.154 211.127C175.235 213.587 175.621 216.296 175.27 218.959V219.529C193.354 215.779 208.539 212.409 219.209 209.181C229.878 205.953 236.057 203.082 237.055 200.068C244.73 176.833 227.811 129.843 218.947 121.109C213.791 116.054 201.885 112.114 189.053 109.622C188.475 107.979 187.456 106.525 186.106 105.422C185.924 105.326 185.733 105.246 185.536 105.184C177.742 103.605 169.709 103.605 161.915 105.184C161.456 105.304 161.01 105.471 160.584 105.683C159.743 106.024 159.003 106.573 158.434 107.279C157.864 107.985 157.484 108.824 157.329 109.717C157.329 109.717 133.328 112.423 128.813 118.095C123.395 124.835 113.889 148.069 106 183.716L135.633 184.713C137.408 184.789 139.098 185.492 140.403 186.695C141.709 187.899 142.544 189.526 142.762 191.287L147.515 221C147.966 216.894 148.275 211.934 152.647 210.629C157.02 209.323 162.747 207.306 169.139 205.004Z" fill="#005CFF"/>
<path d="M219.672 209C224.819 244.066 214.716 260.864 194.415 269.417C190.747 270.77 186.916 271.639 183.019 272L136 271.81" stroke="black" stroke-width="0.86" stroke-miterlimit="10"/>
<path d="M60.1559 191.364L67.663 233.372C67.9193 235.046 68.7329 236.586 69.9729 237.744C71.213 238.902 72.8076 239.612 74.5006 239.758L142.064 243.999C143.226 244.017 144.378 243.776 145.435 243.294C146.492 242.812 147.427 242.101 148.174 241.213C148.921 240.325 149.459 239.283 149.751 238.161C150.042 237.04 150.079 235.868 149.858 234.73L143.068 190.959C142.849 189.194 142.007 187.563 140.693 186.359C139.38 185.154 137.679 184.454 135.896 184.383L67.663 182C66.5166 182.026 65.3899 182.302 64.3623 182.809C63.3346 183.317 62.4311 184.042 61.7153 184.935C60.9996 185.828 60.489 186.866 60.2195 187.977C59.9501 189.088 59.9284 190.244 60.1559 191.364Z" stroke="black" stroke-width="0.86" stroke-miterlimit="10"/>
<path d="M145 243L171.608 232.985C172.095 232.752 172.49 232.376 172.734 231.913C172.977 231.45 173.057 230.924 172.96 230.415C172.863 229.905 172.596 229.439 172.197 229.086C171.799 228.732 171.29 228.51 170.748 228.453L162.054 228" stroke="black" stroke-width="0.86" stroke-miterlimit="10"/>
<path d="M220 232H173" stroke="black" stroke-width="0.86" stroke-miterlimit="10"/>
<path d="M173 219.463C169.051 220.458 164.187 220.06 162.044 225.459C161.322 227.225 160.19 234.117 156.916 231.355C155.543 230.186 156.049 226.728 156.314 225.086C156.77 222.243 157.707 219.506 159.083 217" stroke="black" stroke-width="0.86" stroke-miterlimit="10" stroke-linecap="round"/>
<path d="M153.76 215C152.273 218.259 149.809 232.873 156 230.799" stroke="black" stroke-width="0.86" stroke-miterlimit="10" stroke-linecap="round"/>
<path d="M152 229.291C152 229.741 149.465 230.772 149 229" stroke="black" stroke-width="0.86" stroke-miterlimit="10" stroke-linecap="round"/>
<path d="M128 182C128.925 176.343 134.675 158.331 138 146" stroke="black" stroke-width="0.86" stroke-miterlimit="10" stroke-linecap="square"/>
<path d="M176 219C176 211.231 173.168 206.565 169 204" stroke="#005CFF" stroke-width="0.86" stroke-miterlimit="10"/>
<path d="M184 53.6076C183.263 48.1126 182.288 39.979 178.53 35.7185C166.471 22.0173 152.51 49.9281 150.251 58.909C148.158 67.3088 159.764 86.1662 163.118 87.5218C168.136 89.5552 175.295 84.738 177.578 79.9692" stroke="black" stroke-width="0.86" stroke-miterlimit="10" stroke-linecap="round"/>
<path d="M186.32 105C187.323 91.3483 187.216 77.6329 186 64" stroke="black" stroke-width="0.86" stroke-miterlimit="10"/>
<path d="M165 87C163.659 92.6729 163.371 99.8777 161 105" stroke="black" stroke-width="0.86" stroke-miterlimit="10"/>
<path d="M182 56.4092C188.867 47.1536 193.919 59.3297 191.295 62.5198C189.578 64.5641 185.973 64.1822 183.937 63.2162" stroke="black" stroke-width="0.86" stroke-miterlimit="10" stroke-linecap="round"/>
<path d="M158.764 42.088C157.942 42.088 138.532 38.3277 141.263 33.1572C144.381 27.2346 181.752 45.9189 184 47" stroke="black" stroke-width="0.86" stroke-miterlimit="10"/>
<path d="M185 58C186.093 59.2449 187.515 59.9556 189 60" stroke="black" stroke-width="0.86" stroke-miterlimit="10" stroke-linecap="round"/>
<path d="M170 65C169.448 65 169 64.5523 169 64C169 63.4477 169.448 63 170 63C170.552 63 171 63.4477 171 64C171 64.5523 170.552 65 170 65Z" fill="black"/>
<path d="M158 65C157.448 65 157 64.5523 157 64C157 63.4477 157.448 63 158 63C158.552 63 159 63.4477 159 64C159 64.5523 158.552 65 158 65Z" fill="black"/>
<path d="M161.833 62C163 64.3622 161.642 68.2834 161.19 70.8109C160.904 72.5353 160.451 75.8896 164 74.7794" stroke="black" stroke-width="0.86" stroke-miterlimit="10" stroke-linecap="round"/>
<path d="M174 76C173.598 79.4087 168.85 79.4087 168 78.4523" stroke="black" stroke-width="0.86" stroke-miterlimit="10" stroke-linecap="round"/>
<path d="M203.805 147C208.831 162.848 215.107 182.87 213.833 185.346C212.559 187.822 188.113 197.137 169 204" stroke="black" stroke-width="0.86" stroke-miterlimit="10" stroke-linecap="round"/>
<path d="M65.5149 217C64.2357 217.405 62.9801 217.859 61.7246 218.335C48.7428 223.32 44.2181 239.942 55.1626 249.862C63.4539 257.374 133.338 303.734 137.744 306L153 289.545C153 289.545 120.806 255.3 107.09 241.492" stroke="black" stroke-width="0.86" stroke-miterlimit="10"/>
<path d="M162 62C162 62 158.189 57.5 156 62" stroke="black" stroke-width="0.86" stroke-miterlimit="10" stroke-linecap="round"/>
<path d="M173 62C172.228 61.343 171.37 61 170.5 61C169.63 61 168.772 61.343 168 62" stroke="black" stroke-width="0.86" stroke-linecap="round" stroke-linejoin="round"/>
<path d="M59.3594 35.1826C58.5701 42.3629 56.5489 49.1196 51.4476 50.1591C49.1103 50.4333 46.7442 50.0092 44.6475 48.9403C42.5509 47.8715 40.8178 46.2057 39.6666 44.1531" stroke="black" stroke-width="0.86" stroke-miterlimit="10" stroke-linecap="round"/>
<path d="M59.8594 25.2688C59.8594 25.9233 59.8594 26.6355 59.8594 27.367" stroke="black" stroke-width="0.86" stroke-miterlimit="10" stroke-linecap="round"/>
<path d="M36.124 25.4997C31.4655 17.9537 28.0005 27.8867 29.81 30.4854C30.4315 31.1473 31.2668 31.5682 32.1686 31.6739C33.0703 31.7796 33.9804 31.5632 34.738 31.0629" stroke="black" stroke-width="0.86" stroke-miterlimit="10" stroke-linecap="round"/>
<path d="M32.274 25.75C32.5579 26.824 32.4487 27.9642 31.966 28.9648" stroke="black" stroke-width="0.86" stroke-miterlimit="10" stroke-linecap="round"/>
<path d="M34.6997 22.3621C35.7576 23.7357 37.2075 24.756 38.8577 25.2881C41.2082 25.6124 43.6026 25.2868 45.7812 24.3469C47.9598 23.4069 49.8394 21.8883 51.2162 19.9558C52.1017 21.8808 52.5829 23.4593 54.4117 24.2871C55.481 24.7741 56.6475 25.01 57.822 24.9766C58.9965 24.9432 60.1478 24.6415 61.1877 24.0946C62.7854 11.7938 48.6944 -1.93142 38.9347 8.96408C35.9124 12.3521 35.0847 18.8201 34.5072 23.1898" stroke="black" stroke-width="0.86" stroke-linecap="round" stroke-linejoin="round"/>
<path d="M35.1621 17.6073C32.1014 15.2973 31.5431 20.8028 32.2938 22.4775" stroke="black" stroke-width="0.86" stroke-miterlimit="10" stroke-linecap="round"/>
<path d="M22.5143 24.6335C22.6764 25.3535 23.0307 26.016 23.5394 26.5506C24.0482 27.0852 24.6924 27.4718 25.4034 27.6693C26.1145 27.8668 26.8658 27.8678 27.5773 27.6722C28.2889 27.4766 28.9341 27.0918 29.4443 26.5585" stroke="black" stroke-width="0.86" stroke-linecap="round" stroke-linejoin="round"/>
<path d="M32.7746 17.2993C33.3136 12.4483 28.7898 3.5548 17.7981 7.8283C9.21256 11.1586 9.50131 22.0926 17.7981 26.4238C23.8041 29.6193 19.9926 38.6861 17.3168 39.0326" stroke="black" stroke-width="0.86" stroke-linecap="round" stroke-linejoin="round"/>
<path d="M17.2402 39.0324C29.0789 39.3212 28.0394 31.4479 27.0769 27.8674" stroke="black" stroke-width="0.86" stroke-linecap="round" stroke-linejoin="round"/>
<path d="M45.5376 35.6636C43.0818 35.6636 41.0909 33.6297 41.0909 31.1206C41.0909 28.6116 43.0818 26.5776 45.5376 26.5776C47.9935 26.5776 49.9844 28.6116 49.9844 31.1206C49.9844 33.6297 47.9935 35.6636 45.5376 35.6636Z" stroke="black" stroke-width="0.86" stroke-linecap="round" stroke-linejoin="round"/>
<path d="M57.2603 35.6636C54.8044 35.6636 52.8135 33.6297 52.8135 31.1206C52.8135 28.6116 54.8044 26.5776 57.2603 26.5776C59.7162 26.5776 61.707 28.6116 61.707 31.1206C61.707 33.6297 59.7162 35.6636 57.2603 35.6636Z" stroke="black" stroke-width="0.86" stroke-linecap="round" stroke-linejoin="round"/>
<path d="M36.2399 25.5767C36.2399 25.5767 41.4566 28.9454 41.4951 28.9454" stroke="black" stroke-width="0.86" stroke-miterlimit="10" stroke-linecap="round"/>
<path d="M50.0229 31.1978C50.0229 30.8302 50.1689 30.4776 50.4289 30.2177C50.6888 29.9578 51.0413 29.8118 51.4089 29.8118C51.7765 29.8118 52.129 29.9578 52.389 30.2177C52.6489 30.4776 52.7949 30.8302 52.7949 31.1978" stroke="black" stroke-width="0.86" stroke-linecap="round" stroke-linejoin="round"/>
<path d="M43.9973 41.8237C44.0908 42.2777 44.2843 42.705 44.5637 43.0748C44.8431 43.4445 45.2014 43.7474 45.6126 43.9612C46.0237 44.1751 46.4774 44.2946 46.9405 44.3112C47.4037 44.3277 47.8647 44.2408 48.29 44.0567" stroke="black" stroke-width="0.86" stroke-linecap="round" stroke-linejoin="round"/>
<path d="M52.5441 30.7742C52.5938 31.734 52.729 32.6874 52.9484 33.6232C53.0639 34.3739 54.1226 38.6089 54.2381 39.2442C54.3536 39.8794 51.9666 40.0527 51.3891 40.1489" stroke="black" stroke-width="0.86" stroke-linecap="round" stroke-linejoin="round"/>
<path d="M16.8546 95.0692C22.2061 89.2942 40.8786 72.797 41.6486 72.2387C42.8367 71.6254 44.1623 71.3271 45.4986 71.3725C49.3447 71.032 53.216 71.0965 57.0486 71.565C58.9736 71.796 59.4356 74.4332 57.2026 74.5872C55.7011 74.5872 54.0456 74.4717 52.5249 74.4717C50.5084 74.3939 48.489 74.4518 46.4804 74.645" stroke="black" stroke-width="0.86" stroke-miterlimit="10" stroke-linecap="round"/>
<path d="M46.4615 74.7413C48.6449 74.4806 50.8588 74.7582 52.9102 75.5498C55.9517 76.801 54.1615 79.5923 53.6033 80.1698" stroke="black" stroke-width="0.86" stroke-miterlimit="10" stroke-linecap="round"/>
<path d="M46.634 77.7443C48.1547 77.6288 53.9683 77.2823 53.641 80.9976C53.5448 81.9986 51.331 85.8486 48.636 85.1941C48.466 85.1713 48.303 85.1115 48.1586 85.0189C48.0141 84.9263 47.8917 84.8032 47.8 84.6583C47.7082 84.5133 47.6494 84.35 47.6275 84.1798C47.6057 84.0097 47.6214 83.8368 47.6735 83.6733C47.866 82.9611 48.6745 82.5761 49.1557 82.0756C49.637 81.5751 49.7333 81.5558 49.406 81.2478C48.4175 80.9719 47.3723 80.9719 46.3838 81.2478C39.5693 84.5396 28.8278 99.3813 25.8633 102.885" stroke="black" stroke-width="0.86" stroke-miterlimit="10" stroke-linecap="round"/>
<path d="M79.9567 76.0888C79.5921 76.1476 79.2185 76.0767 78.9009 75.8886C78.5832 75.7004 78.3415 75.4068 78.2179 75.0589C78.0943 74.711 78.0966 74.3307 78.2243 73.9843C78.3521 73.6379 78.5973 73.3472 78.9172 73.1628C81.4606 72.6619 84.0319 72.3147 86.6172 72.1233C87.0313 72.1189 87.429 71.9611 87.7337 71.6806C88.2534 70.9876 87.4834 70.0058 86.7134 69.9866" stroke="black" stroke-width="0.86" stroke-miterlimit="10"/>
<path d="M87.4249 67.4839C88.7183 67.5092 89.949 68.0461 90.8475 68.977C91.7459 69.9078 92.2387 71.1568 92.2181 72.4504C92.0449 75.2801 89.0804 76.1464 87.9831 76.3004C86.8859 76.4544 79.3976 75.9154 78.3581 76.3004C77.3186 76.6854 76.5679 79.0146 78.3581 79.6306C81.4796 79.9355 84.6179 80.0319 87.7521 79.9194C88.464 79.9752 89.1781 79.8459 89.8252 79.544C90.4723 79.2422 91.0302 78.778 91.4449 78.1968C91.8595 77.6155 92.1167 76.9368 92.1915 76.2267C92.2663 75.5166 92.1561 74.7993 91.8716 74.1444" stroke="black" stroke-width="0.86" stroke-miterlimit="10"/>
<path d="M78.705 79.7655C78.4121 79.8793 78.1604 80.079 77.983 80.3383C77.8055 80.5977 77.7106 80.9046 77.7106 81.2188C77.7106 81.5331 77.8055 81.84 77.983 82.0994C78.1604 82.3587 78.4121 82.5584 78.705 82.6722C81.549 82.9878 84.4102 83.1228 87.2713 83.0765C89.485 83.0765 92.1993 81.7867 91.1213 78.033" stroke="black" stroke-width="0.86" stroke-miterlimit="10"/>
<path d="M85.8664 83.4231L85.4814 87.0421C85.462 87.3441 85.3825 87.6393 85.2474 87.9101C85.1124 88.181 84.9246 88.4221 84.695 88.6194C84.4655 88.8167 84.1988 88.9661 83.9107 89.0588C83.6226 89.1516 83.3189 89.1859 83.0174 89.1596L74.8939 88.6206C74.3201 88.4953 73.8171 88.1527 73.4905 87.6646C73.1639 87.1764 73.039 86.5808 73.1421 86.0026C73.5271 80.9206 74.2586 69.4476 74.5666 66.8488C74.7399 65.4436 74.4511 63.3838 77.6851 63.4608C80.3609 63.4608 82.7479 63.4608 85.5391 63.4608C85.822 63.4567 86.1023 63.515 86.36 63.6315C86.6178 63.748 86.8467 63.9199 87.0305 64.1349C87.2143 64.35 87.3484 64.6029 87.4234 64.8756C87.4983 65.1484 87.5123 65.4343 87.4641 65.7131C87.2716 67.6381 86.8866 70.3908 86.6941 72.2966" stroke="black" stroke-width="0.86" stroke-miterlimit="10"/>
<path d="M8.53945 82.1911C7.96195 74.0098 7.11495 63.8843 13.8332 60.2268C24.1512 54.6251 33.0832 62.9026 33.0832 62.9026C33.0832 52.1418 32.4672 42.3628 33.4297 31.6213" stroke="black" stroke-width="0.86" stroke-linejoin="round"/>
<path d="M73.9316 76.4353C72.5841 69.6208 70.2164 57.4548 58.1466 57.4548C54.6431 57.4548 50.6969 59.0718 49.8691 62.017C48.3853 58.0358 47.3396 53.9047 46.7506 49.697" stroke="black" stroke-width="0.86" stroke-linejoin="round"/>
<path d="M66.867 111.874C62.3625 97.5331 61.9968 78.2446 62.0353 77.1089C62.0353 77.1089 69.8893 109.487 76.9925 108.525C84.0958 107.562 82.344 91.2961 82.344 89.0054" stroke="black" stroke-width="0.86" stroke-linejoin="round"/>
<path d="M35.5469 77.5132L23.5156 77.6864C23.5156 77.6864 23.5156 81.1707 23.5156 88.5627" stroke="black" stroke-width="0.86" stroke-linejoin="round"/>
<path d="M62.0352 77.1089L54.5469 77.2244" stroke="black" stroke-width="0.86" stroke-linejoin="round"/>
<path d="M32.486 14.1038C34.0068 13.3338 35.5468 12.6216 37.1445 11.9863" stroke="black" stroke-width="0.86" stroke-miterlimit="10"/>
<path d="M54.893 8.34791H56.4523C68.4493 8.34257 80.0859 12.4482 89.4234 19.9807C98.7609 27.5133 105.235 38.0179 107.768 49.7445C110.301 61.4711 108.739 73.7115 103.343 84.4265C97.9471 95.1414 89.0423 103.684 78.1126 108.63C67.1829 113.577 54.8882 114.629 43.2769 111.612C31.6656 108.594 21.4388 101.689 14.3004 92.0472C7.16195 82.4051 3.54294 70.608 4.04632 58.6216C4.5497 46.6351 9.14505 35.1831 17.0668 26.1734" stroke="black" stroke-width="0.86" stroke-miterlimit="10"/>
<path d="M60.9953 77.0514C61.2456 76.5701 62.7663 61.0161 54.7198 57.9746" stroke="black" stroke-width="0.86" stroke-linejoin="round"/>
<path d="M54.4308 70.7756C54.6811 69.2741 53.7956 62.3056 50.5808 61.7859" stroke="black" stroke-width="0.86" stroke-linejoin="round"/>
<path d="M24.1189 78C23.9666 77.5641 23.0408 62.8698 27.9512 60" stroke="black" stroke-width="0.86" stroke-linejoin="round"/>
<path d="M29.7908 77.7636C29.3866 75.3189 29.6561 63.8459 33.1211 62.7871" stroke="black" stroke-width="0.86" stroke-linejoin="round"/>
<path d="M59.5 77C62.5 76 60 69 59.5 65C59 61.0001 55.5 59.5 54.5 58.5L51 61.5C52 62.5 54 64.6 54 65C54 65.4 54.6667 68.8333 55 70.5C56 70.6667 58.1 71.2 58.5 72C58.9 72.8 59 74.3334 59 75H52.5C53.8333 76 57.1 77.8 59.5 77Z" fill="black"/>
<path d="M50.5 62C51.5 60.6667 53.7 57.7 54.5 58.5M54.5 58.5C55.5 59.5 59 61.0001 59.5 65C60 69 62.5 76 59.5 77C57.1 77.8 53.8333 76 52.5 75H59C59 74.3334 58.9 72.8 58.5 72C58.1 71.2 56 70.6667 55 70.5M54.5 58.5L51 61.5C52 62.5 54 64.6 54 65C54 65.4 54.6667 68.8333 55 70.5M55 70.5L54.5 71H54" stroke="black"/>
<path d="M66.5 112C63.3 108 61.8333 87.3333 61.5 77.5H61H55.5L55 79L54.5 80V80.5V81L54 82.5L52.5 84.5L51.5 85.5L49.5 86H48L47 84L48 82.5H46L49.5 81.5H47C45.8 80.3 32.5 95.3333 26 103C38.4 113.8 58.1667 113.5 66.5 112Z" fill="black" stroke="black"/>
<path d="M24 87.5V78H34.5L24 87.5Z" fill="black" stroke="black"/>
<path d="M29.5 69.5C29.9 67.1 31.3333 63.8333 32 62.5L28 60.5L26 64L24.5 69V77H29C29 75.5 29.1 71.9 29.5 69.5Z" fill="black" stroke="black"/>
</g>
<defs>
<clipPath id="clip0_96_7529">
<rect width="250" height="250" rx="30" transform="matrix(-1 0 0 1 250 0)" fill="white"/>
</clipPath>
</defs>
</svg>
