<svg width="250" height="250" viewBox="0 0 250 250" fill="none" xmlns="http://www.w3.org/2000/svg">
<path d="M161.75 27V39.25H88.25V27H161.75Z" fill="white"/>
<path d="M63.75 51.5V39.25H88.25V51.5H63.75Z" fill="white"/>
<path d="M51.5 63.75V51.5H63.75V63.75H51.5Z" fill="white"/>
<path d="M39.25 88.25V63.75H51.5V88.25H39.25Z" fill="white"/>
<path d="M39.25 161.75H27V88.25H39.25V161.75Z" fill="white"/>
<path d="M51.5 186.25H39.25V161.75H51.5V186.25Z" fill="white"/>
<path d="M63.75 198.5H51.5V186.25H63.75V198.5Z" fill="white"/>
<path d="M88.25 210.75H63.75V198.5H88.25V210.75Z" fill="white"/>
<path d="M161.75 210.75V223H88.25V210.75H161.75Z" fill="white"/>
<path d="M186.25 198.5V210.75H161.75V198.5H186.25Z" fill="white"/>
<path d="M198.5 186.25V198.5H186.25V186.25H198.5Z" fill="white"/>
<path d="M210.75 161.75V186.25H198.5V161.75H210.75Z" fill="white"/>
<path d="M210.75 88.25H223V161.75H210.75V88.25Z" fill="white"/>
<path d="M198.5 63.75H210.75V88.25H198.5V63.75Z" fill="white"/>
<path d="M186.25 51.5H198.5V63.75H186.25V51.5Z" fill="white"/>
<path d="M186.25 51.5V39.25H161.75V51.5H186.25Z" fill="white"/>
<path d="M88.25 161.75H100.5V174H112.75V186.25H125V174H149.5V161.75H161.75V137.25H149.5V125H125V112.75H100.5V88.25H149.5V100.5H161.75V88.25H149.5V76H137.25V63.75H125V76H100.5V88.25H88.25V112.75H100.5V125H125V137.25H149.5V161.75H100.5V149.5H88.25V161.75Z" fill="white"/>
</svg>
