<svg width="25" height="25" viewBox="0 0 25 25" fill="none" xmlns="http://www.w3.org/2000/svg">
<path fill-rule="evenodd" clip-rule="evenodd" d="M23.9298 3.43304C24.6437 2.71921 24.6437 1.56187 23.9298 0.848042C23.216 0.134213 22.0587 0.134214 21.3448 0.848043L12.389 9.80388L3.43316 0.84804C2.71933 0.134213 1.56199 0.134214 0.848164 0.848042C0.134336 1.56187 0.134336 2.71921 0.848164 3.43304L9.804 12.3889L0.848163 21.3447C0.134335 22.0585 0.134336 23.2159 0.848164 23.9297C1.56199 24.6435 2.71934 24.6435 3.43317 23.9297L12.389 14.9739L21.3448 23.9297C22.0587 24.6435 23.216 24.6435 23.9298 23.9297C24.6437 23.2159 24.6437 22.0585 23.9298 21.3447L14.974 12.3889L23.9298 3.43304Z" fill="white"/>
</svg>
