<svg width="40" height="40" viewBox="0 0 40 40" fill="none" xmlns="http://www.w3.org/2000/svg">
<rect width="40" height="40" rx="10" fill="#858585" fill-opacity="0.25"/>
<path d="M10 20.4932C10 20.913 10.1786 21.3191 10.4945 21.617L19.5182 30.5126C19.8753 30.8511 20.2462 31 20.6307 31C21.5098 31 22.1416 30.3907 22.1416 29.5648C22.1416 29.1315 21.963 28.766 21.6883 28.4952L18.598 25.4081L14.6149 21.8201L17.8014 22.0097H34.448C35.3682 22.0097 36 21.3868 36 20.4932C36 19.6132 35.3682 18.9903 34.448 18.9903H17.8014L14.6149 19.1799L18.598 15.5919L21.6883 12.5048C21.963 12.234 22.1416 11.8685 22.1416 11.4352C22.1416 10.6093 21.5098 10 20.6307 10C20.2462 10 19.8753 10.1489 19.5457 10.4603L10.4945 19.383C10.1786 19.6809 10 20.087 10 20.4932Z" fill="#005CFF"/>
</svg>
