<svg width="42" height="37" viewBox="0 0 42 37" fill="none" xmlns="http://www.w3.org/2000/svg">
<path fill-rule="evenodd" clip-rule="evenodd" d="M11.8662 23.7825L1.80762 21.2001C0.788378 20.9311 0.674348 19.6277 1.63139 19.1858L40.3451 0.754983C41.0654 0.453168 41.9923 1.08845 41.9413 1.92868L37.6591 35.4952C37.4847 36.3462 36.5276 36.7881 35.8686 36.3682L25.5197 30.4681C24.8607 30.0482 24.1196 30.113 23.5435 30.641L18.4819 35.3821C17.9161 36.0285 16.8969 35.7595 16.5876 35.0702L11.8662 23.7825ZM32.7121 8.82526L14.7986 21.735C14.0886 22.1553 13.7906 23.0172 14.1102 23.825L16.8216 30.6321C16.9866 31.0952 17.7174 30.9119 17.7994 30.4271L17.9618 26.5923C18.0231 25.8706 18.3315 25.1272 18.7841 24.61L33.1241 9.26679C33.4739 8.9974 33.0619 8.55586 32.7121 8.82526Z" fill="#1A1B22"/>
</svg>
